<svg width="206" height="136" viewBox="0 0 206 136" fill="none" xmlns="http://www.w3.org/2000/svg">
<path d="M28.3296 133.33C28.3296 133.33 23.4101 114.148 21.8417 106.601C20.2733 99.0541 20.3442 97.9182 20.3442 97.9182C20.3442 97.9182 28.4619 110.864 32.9972 116.878C37.5323 122.893 38.4775 124.533 38.4775 124.533L28.3296 133.33Z" fill="#37664A"/>
<path d="M20.0781 144.609C20.0781 144.609 17.5016 132.563 11.9586 126.214C6.41553 119.866 0.242554 119.235 0.242554 119.235C0.242554 119.235 5.33725 116.208 12.9942 121C20.6512 125.794 25.3061 134.111 25.3061 134.111C25.3061 134.111 18.1316 122.846 17.3756 115.869C16.6198 108.892 16.4586 106.73 16.4586 106.73C16.4586 106.73 21.0901 116.586 24.461 120.496C27.8319 124.406 35.4329 131.718 35.4329 131.718C35.4329 131.718 23.0326 145.134 20.0781 144.609Z" fill="#99B746"/>
<path d="M195.874 70.4635H184.606L164.769 29.4332L169.504 20.453L195.874 70.4635Z" fill="#5B1727"/>
<path d="M169.503 11.3633L165.514 19.0847L160.948 27.9192L155.677 38.1158L150.39 48.3478L138.961 70.4636H23.4423V67.7068L33.773 48.3478L39.2355 38.1158L44.6829 27.9192L49.3943 19.0847L53.5198 11.3618L169.503 11.3633Z" fill="#AF4552"/>
<path d="M85.0031 30.2804H112.945C114.126 30.2804 114.85 31.5745 114.235 32.5831L114.234 32.5851C113.959 33.0352 113.471 33.3101 112.944 33.3101H85.0011C83.7712 33.3101 83.0563 31.9171 83.7722 30.9156L83.7732 30.9136C84.0572 30.5161 84.5152 30.2804 85.0031 30.2804Z" fill="white"/>
<path d="M29.0995 142.998H137.035V70.4634H29.0995V142.998Z" fill="#A6C0D1"/>
<path d="M190.241 67.3184V142.999H137.037V70.4617H139.154L165.529 20.4521L190.241 67.3184Z" fill="#D7E7F4"/>
<path d="M165.527 24.8743L137.035 78.3677V70.4636H139.156L165.527 20.453V24.8743Z" fill="#A6C0D1"/>
<path d="M165.529 20.4519L163.007 24.8767L190.241 76.0074V67.3182L165.529 20.4519Z" fill="#A6C0D1"/>
<path d="M137.035 78.3677H29.0995V70.4636H137.035V78.3677Z" fill="#6F95AA"/>
<path d="M131.933 133.33H86.0759V137.749H131.933V133.33Z" fill="#BDD5E5"/>
<path d="M120.847 84.0858H96.9947C96.1598 84.0858 95.4828 84.7637 95.4828 85.5996V133.33H122.359V85.5996C122.359 84.7637 121.682 84.0858 120.847 84.0858Z" fill="#8C3341"/>
<path d="M120.352 115.375V130.289C120.352 130.846 119.901 131.298 119.344 131.298H98.4925C97.9356 131.298 97.4846 130.846 97.4846 130.289V115.375C97.4846 114.818 97.9356 114.366 98.4925 114.366H119.344C119.901 114.366 120.352 114.818 120.352 115.375Z" fill="#CE684D"/>
<path d="M100.9 109.996C100.9 110.849 100.209 111.541 99.3566 111.541C98.5036 111.541 97.8136 110.849 97.8136 109.996C97.8136 109.142 98.5036 108.451 99.3566 108.451C100.209 108.451 100.9 109.142 100.9 109.996Z" fill="#CE684D"/>
<path d="M47.7785 85.0947H34.929C34.3722 85.0947 33.9212 85.5467 33.9212 86.1046V126.719C33.9212 127.276 34.3722 127.729 34.929 127.729H47.7785C48.3354 127.729 48.7864 127.276 48.7864 126.719V86.1046C48.7864 85.5467 48.3354 85.0947 47.7785 85.0947Z" fill="#346697"/>
<path d="M35.433 126.214V86.6085H47.2745V126.214H35.433Z" fill="#D7E7F4"/>
<path d="M162.772 78.6921H150.6C150.043 78.6921 149.592 79.1437 149.592 79.7012V122.577C149.592 123.135 150.043 123.587 150.6 123.587H162.772C163.329 123.587 163.78 123.135 163.78 122.577V79.7012C163.78 79.1437 163.329 78.6921 162.772 78.6921Z" fill="#346697"/>
<path d="M162.339 80.2849V121.994H151.036V80.2849H162.339Z" fill="#DFEFED"/>
<path d="M180.186 78.6921H168.015C167.458 78.6921 167.007 79.1437 167.007 79.7012V122.577C167.007 123.135 167.458 123.587 168.015 123.587H180.186C180.743 123.587 181.194 123.135 181.194 122.577V79.7012C181.194 79.1437 180.743 78.6921 180.186 78.6921Z" fill="#346697"/>
<path d="M179.754 80.2849V121.994H168.451V80.2849H179.754Z" fill="#DFEFED"/>
<path d="M64.4085 133.993V122.935H82.3454V133.993H64.4085ZM82.3454 110.574V121.631H64.4085V110.574H82.3454ZM64.4085 109.27V98.2131H82.3454V109.27H64.4085ZM82.3454 85.8516V96.9093H64.4085V85.8516H82.3454ZM82.3454 70.4634V84.5477H64.4085V70.4634H62.9637V142.998H64.4085V135.296H82.3454V142.998H83.7892V70.4634H82.3454Z" fill="#6F95AA"/>
<path d="M169.504 11.3618L165.514 19.0848H49.3943L53.5198 11.3618H169.504Z" fill="#CE684D"/>
<path d="M160.948 27.9192L155.677 38.1159H39.2355L44.6828 27.9192H160.948Z" fill="#CE684D"/>
<path d="M144.848 59.0737L150.39 48.3478H33.773L28.0493 59.0737H144.848Z" fill="#CE684D"/>
<path d="M162.278 80.9609L161.91 80.4714C162.082 80.5875 162.213 80.759 162.278 80.9609Z" fill="white"/>
<path d="M151.036 85.0988L162.339 99.1441V108.145L151.036 94.0187V85.0988Z" fill="white"/>
<path d="M179.754 120.784V121.994H173.415L168.451 115.789V106.738L179.754 120.784Z" fill="white"/>
<path d="M179.754 99.195V103.962L168.451 89.0842V84.3368L179.754 99.195Z" fill="white"/>
<path d="M162.339 121.889V121.994H159.496L151.036 113.75V110.35L162.339 121.889Z" fill="white"/>
<path d="M169.504 11.3618V20.453L143.133 70.4636H138.961L169.504 11.3618Z" fill="#8C3341"/>
<path d="M200.047 70.4636H195.874L169.503 20.453V11.3618L200.047 70.4636Z" fill="#8C3341"/>
<path d="M141.979 70.4636H23.4423V67.7068H141.979V70.4636Z" fill="#8C3341"/>
<path d="M77.416 82.735H60.609C60.052 82.735 59.6011 82.2831 59.6011 81.7262C59.6011 81.1682 60.052 80.7167 60.609 80.7167H77.416C77.9729 80.7167 78.4239 81.1682 78.4239 81.7262C78.4239 82.2831 77.9729 82.735 77.416 82.735Z" fill="#DFEFED"/>
<path d="M74.3523 95.6734H57.5443C56.9884 95.6734 56.5364 95.2225 56.5364 94.6645C56.5364 94.1076 56.9884 93.6556 57.5443 93.6556H74.3523C74.9083 93.6556 75.3602 94.1076 75.3602 94.6645C75.3602 95.2225 74.9083 95.6734 74.3523 95.6734Z" fill="#DFEFED"/>
<path d="M71.7646 106.601H54.9566C54.4007 106.601 53.9487 106.149 53.9487 105.592C53.9487 105.034 54.4007 104.582 54.9566 104.582H71.7646C72.3206 104.582 72.7725 105.034 72.7725 105.592C72.7725 106.149 72.3206 106.601 71.7646 106.601Z" fill="#DFEFED"/>
<path d="M69.012 117.887H52.2839C51.728 117.887 51.2761 117.435 51.2761 116.878C51.2761 116.321 51.728 115.869 52.2839 115.869H69.012C69.5689 115.869 70.0199 116.321 70.0199 116.878C70.0199 117.435 69.5689 117.887 69.012 117.887Z" fill="#DFEFED"/>
<path d="M66.3403 129.854H49.4503C48.8933 129.854 48.4424 129.403 48.4424 128.846C48.4424 128.289 48.8933 127.837 49.4503 127.837H66.3403C66.8972 127.837 67.3482 128.289 67.3482 128.846C67.3482 129.403 66.8972 129.854 66.3403 129.854Z" fill="#DFEFED"/>
<path d="M79.9527 71.4728H63.3607C62.8037 71.4728 62.3528 71.0207 62.3528 70.4637C62.3528 69.9061 62.8037 69.4546 63.3607 69.4546H79.9527C80.5097 69.4546 80.9606 69.9061 80.9606 70.4637C80.9606 71.0207 80.5097 71.4728 79.9527 71.4728Z" fill="#DFEFED"/>
<path d="M82.7164 60.2042H66.7112C66.1543 60.2042 65.7034 59.7527 65.7034 59.1951C65.7034 58.6382 66.1543 58.186 66.7112 58.186H82.7164C83.2733 58.186 83.7242 58.6382 83.7242 59.1951C83.7242 59.7527 83.2733 60.2042 82.7164 60.2042Z" fill="#DFEFED"/>
<path d="M85.301 48.4285C84.7581 48.3013 84.2161 48.6358 84.0882 49.1777L61.3698 145.112C61.2419 145.655 61.5758 146.198 62.1178 146.326C62.1957 146.345 62.2737 146.353 62.3507 146.353C62.8077 146.353 63.2206 146.041 63.3316 145.578L86.0489 49.6433C86.1779 49.101 85.843 48.5571 85.301 48.4285Z" fill="#DFEFED"/>
<path d="M68.493 48.4285C67.9501 48.3013 67.4082 48.6358 67.2802 49.1777L44.5619 145.112C44.4339 145.655 44.7688 146.198 45.3098 146.326C45.3878 146.345 45.4668 146.353 45.5437 146.353C45.9997 146.353 46.4126 146.041 46.5236 145.578L69.242 49.6433C69.3699 49.101 69.035 48.5571 68.493 48.4285Z" fill="#DFEFED"/>
<path d="M190.242 101.829C190.242 101.829 192.15 95.9424 194.67 95.6064C197.19 95.2695 196.854 88.9632 197.526 87.1964C198.198 85.4306 200.633 85.5156 202.229 85.0107C203.824 84.5057 204.749 83.1609 205.757 85.0107C206.765 86.8605 203.824 90.2241 204.916 91.9059C206.009 93.5877 205.672 95.4375 203.572 97.1193C201.473 98.8011 205.363 102 201.99 104.478C198.618 106.958 197.819 108.549 197.526 110.658C197.232 112.766 194.166 118.478 192.486 118.815C190.807 119.151 190.242 118.815 190.242 118.815V101.829Z" fill="#678742"/>
<path d="M201.389 90.9351C201.389 90.9351 198.282 101.408 194.67 105.36C191.059 109.313 190.242 109.901 190.242 109.901V110.658C190.242 110.658 193.494 108.468 196.959 102.941C200.424 97.4133 201.389 90.9351 201.389 90.9351Z" fill="#37664A"/>
<path d="M190.242 142.998C190.242 142.998 196.938 137.063 196.686 132.605C196.434 128.149 195.258 127.476 198.282 125.458C201.304 123.439 203.489 120.581 202.312 118.226C201.137 115.872 198.954 113.937 200.214 111.584C201.473 109.229 203.32 107.967 202.229 105.024C201.137 102.081 198.534 102.418 197.694 105.024C196.854 107.631 197.61 108.051 195.594 108.808C193.578 109.565 192.99 112.004 192.99 113.769C192.99 115.535 190.242 117.133 190.242 117.133V142.998Z" fill="#99B746"/>
<path d="M197.526 110.658C197.526 110.658 195.342 120.413 193.41 123.944C191.479 127.476 190.242 128.497 190.242 128.497V130.888C190.242 130.888 193.41 126.768 195.09 121.992C196.77 117.217 197.526 110.658 197.526 110.658Z" fill="#678742"/>
<path d="M38.4775 135.67V137.436C38.4775 137.838 38.2106 138.164 37.8809 138.164H17.0546C16.7258 138.164 16.4586 137.838 16.4586 137.436V135.67C16.4586 135.268 16.7258 134.941 17.0546 134.941H37.8809C38.2106 134.941 38.4775 135.268 38.4775 135.67Z" fill="#FFAF5F"/>
<path d="M19.0665 138.164H23.8091V134.941H19.0665V138.164Z" fill="#FFDF8F"/>
<path d="M25.306 138.164H27.6772V134.941H25.306V138.164Z" fill="#FFDF8F"/>
<path d="M41.0852 132.447V134.213C41.0852 134.615 40.8183 134.941 40.4893 134.941H19.6628C19.3336 134.941 19.0665 134.615 19.0665 134.213V132.447C19.0665 132.045 19.3336 131.719 19.6628 131.719H40.4893C40.8183 131.719 41.0852 132.045 41.0852 132.447Z" fill="#FFAF5F"/>
<path d="M21.6743 134.941H26.417V131.719H21.6743V134.941Z" fill="#FFDF8F"/>
<path d="M27.9138 134.941H30.2853V131.719H27.9138V134.941Z" fill="#FFDF8F"/>
<path d="M40.4893 134.941H19.6628C19.3336 134.941 19.0665 134.615 19.0665 134.213V134.111H21.6744V134.941H26.4166V134.111H27.914V134.941H30.2851V134.111H41.0852V134.213C41.0852 134.615 40.8183 134.941 40.4893 134.941Z" fill="#F98148"/>
<path d="M21.6743 134.941H26.417V134.111H21.6743V134.941Z" fill="#F99057"/>
<path d="M27.9138 134.941H30.2853V134.111H27.9138V134.941Z" fill="#F99057"/>
<path d="M38.4775 129.224V130.99C38.4775 131.392 38.2106 131.719 37.8809 131.719H17.0546C16.7258 131.719 16.4586 131.392 16.4586 130.99V129.224C16.4586 128.823 16.7258 128.497 17.0546 128.497H37.8809C38.2106 128.497 38.4775 128.823 38.4775 129.224Z" fill="#FFAF5F"/>
<path d="M19.0665 131.72H23.8091V128.497H19.0665V131.72Z" fill="#FFDF8F"/>
<path d="M25.306 131.72H27.6772V128.497H25.306V131.72Z" fill="#FFDF8F"/>
<path d="M37.8809 131.719H27.6771V130.889H38.4775V130.99C38.4775 131.392 38.2106 131.719 37.8809 131.719ZM25.3061 131.719H23.8086V130.889H25.3061V131.719ZM19.0664 131.719H17.0546C16.7258 131.719 16.4586 131.392 16.4586 130.99V130.889H19.0664V131.719Z" fill="#F98148"/>
<path d="M23.8092 131.719H19.0665V130.889H23.8092V131.719Z" fill="#F99057"/>
<path d="M27.6772 131.719H25.306V130.889H27.6772V131.719Z" fill="#F99057"/>
<path d="M165.636 135.67V137.436C165.636 137.838 165.332 138.164 164.956 138.164H141.2C140.824 138.164 140.52 137.838 140.52 137.436V135.67C140.52 135.268 140.824 134.941 141.2 134.941H164.956C165.332 134.941 165.636 135.268 165.636 135.67Z" fill="#FFAF5F"/>
<path d="M143.495 138.164H148.904V134.941H143.495V138.164Z" fill="#FFDF8F"/>
<path d="M150.612 138.164H153.317V134.941H150.612V138.164Z" fill="#FFDF8F"/>
<path d="M166.895 132.447V134.213C166.895 134.615 166.591 134.941 166.216 134.941H142.46C142.084 134.941 141.779 134.615 141.779 134.213V132.447C141.779 132.045 142.084 131.719 142.46 131.719H166.216C166.591 131.719 166.895 132.045 166.895 132.447Z" fill="#FFAF5F"/>
<path d="M144.755 134.941H150.164V131.719H144.755V134.941Z" fill="#FFDF8F"/>
<path d="M151.871 134.941H154.576V131.719H151.871V134.941Z" fill="#FFDF8F"/>
<path d="M166.216 134.941H142.46C142.084 134.941 141.779 134.615 141.779 134.213V134.111H144.754V134.941H150.163V134.111H151.872V134.941H154.576V134.111H166.895V134.213C166.895 134.615 166.591 134.941 166.216 134.941Z" fill="#F98148"/>
<path d="M144.755 134.941H150.164V134.111H144.755V134.941Z" fill="#F99057"/>
<path d="M151.871 134.941H154.576V134.111H151.871V134.941Z" fill="#F99057"/>
<path d="M162.15 129.224V130.99C162.15 131.392 161.846 131.719 161.47 131.719H137.715C137.339 131.719 137.035 131.392 137.035 130.99V129.224C137.035 128.823 137.339 128.497 137.715 128.497H161.47C161.846 128.497 162.15 128.823 162.15 129.224Z" fill="#FFAF5F"/>
<path d="M140.01 131.72H145.42V128.497H140.01V131.72Z" fill="#FFDF8F"/>
<path d="M147.127 131.72H149.831V128.497H147.127V131.72Z" fill="#FFDF8F"/>
<path d="M161.47 131.719H149.831V130.889H162.15V130.99C162.15 131.392 161.846 131.719 161.47 131.719ZM147.127 131.719H145.419V130.889H147.127V131.719ZM140.01 131.719H137.715C137.339 131.719 137.035 131.392 137.035 130.99V130.889H140.01V131.719Z" fill="#F98148"/>
<path d="M145.42 131.719H140.01V130.889H145.42V131.719Z" fill="#F99057"/>
<path d="M147.127 131.719H149.831V130.889H147.127V131.719Z" fill="#F99057"/>
<path d="M102.465 25.5564H105.873C106.642 25.5564 107.127 26.3838 106.754 27.0563L95.1939 47.8301C95.0169 48.1494 94.6799 48.3477 94.314 48.3477H90.7534C89.9815 48.3477 89.4966 47.5152 89.8755 46.8427L101.588 26.0694C101.766 25.7526 102.102 25.5564 102.465 25.5564Z" fill="#702836"/>
<path d="M79.7247 7.95459C79.7247 7.95459 78.6418 14.8819 78.4348 15.2148C78.2239 15.5529 72.4285 22.4802 72.4285 22.4802L70.6248 20.0938L74.0664 14.9626C74.0664 14.9626 75.0282 14.0545 75.7692 13.3179C76.1271 12.9546 76.4341 12.6367 76.5451 12.4854C76.878 12.0212 77.8459 9.80627 78.6018 9.20084C78.6918 9.13015 78.7728 9.05956 78.8538 8.98887V8.98387C79.4377 8.45913 79.7247 7.95459 79.7247 7.95459Z" fill="#FFB2A8"/>
<path d="M79.7247 7.95459C79.7247 7.95459 78.6418 14.8819 78.4348 15.2148C78.2239 15.5529 72.4285 22.4802 72.4285 22.4802L70.6248 20.0938L74.0664 14.9626C74.0664 14.9626 75.0282 14.0545 75.7692 13.3179C75.8151 14.7457 75.8901 16.2239 75.9961 16.2239C76.2081 16.1836 76.838 15.341 76.878 14.9223C76.913 14.6145 77.6339 11.3199 78.8538 8.98887V8.98387C79.4377 8.45913 79.7247 7.95459 79.7247 7.95459Z" fill="#F26173"/>
<path d="M107.575 10.8919C110.38 18.9726 106.112 27.8004 98.0406 30.6092C89.9705 33.4179 81.1535 29.144 78.3479 21.0633C75.5422 12.9827 79.8117 4.15483 87.8818 1.34616C95.9528 -1.46261 104.77 2.81128 107.575 10.8919Z" fill="#FFAF5F"/>
<path d="M103.256 12.3949C105.232 18.0872 102.226 24.306 96.5397 26.2848C90.8544 28.2636 84.6431 25.2525 82.6673 19.5604C80.6916 13.8681 83.6972 7.64878 89.3826 5.67051C95.0689 3.69175 101.28 6.70279 103.256 12.3949Z" fill="white"/>
<path d="M96.5387 26.2849C90.8544 28.2636 84.6431 25.2526 82.6674 19.5605C80.6906 13.8682 83.6972 7.64886 89.3826 5.6706C95.0689 3.69183 101.279 6.70287 103.256 12.395C105.232 18.0872 102.225 24.3061 96.5387 26.2849ZM89.0996 4.85479C82.9643 6.98994 79.7187 13.7002 81.8515 19.844C83.9842 25.9872 90.6874 29.2359 96.8227 27.1008C102.959 24.9655 106.204 18.2547 104.071 12.1109C101.938 5.96776 95.2359 2.71954 89.0996 4.85479Z" fill="#F76D3E"/>
<path d="M103.256 12.3949C105.232 18.0872 102.226 24.306 96.5397 26.2848C90.8544 28.2636 84.6431 25.2525 82.6673 19.5604C80.6916 13.8681 83.6972 7.64878 89.3826 5.67051C95.0689 3.69175 101.28 6.70279 103.256 12.3949Z" fill="#FFE3AB"/>
<path d="M94.185 19.502C89.6865 21.0675 84.8591 19.509 82.0604 15.9702C82.0604 17.1609 82.2544 18.3718 82.6674 19.5605C84.6431 25.2526 90.8544 28.2637 96.5397 26.2849C102.225 24.3061 105.232 18.0872 103.256 12.395C102.843 11.2069 102.246 10.1358 101.507 9.20239C101.504 13.716 98.6835 17.9364 94.185 19.502Z" fill="#FFAF5F"/>
<path d="M95.7538 17.4828C95.6888 17.2946 95.5978 17.1412 95.4819 17.0232C95.3659 16.9051 95.2289 16.8123 95.0689 16.7457C94.9099 16.6786 94.7349 16.6342 94.544 16.6114C94.353 16.5887 94.149 16.5792 93.933 16.5817L94.73 19.6911C95.2309 19.4389 95.5668 19.1235 95.7378 18.7442C95.9088 18.3647 95.9148 17.9444 95.7538 17.4828ZM90.4515 13.8708C90.5175 14.06 90.6074 14.2149 90.7214 14.3365C90.8364 14.4581 90.9704 14.5544 91.1254 14.6256C91.2814 14.6967 91.4523 14.7482 91.6413 14.78C91.8303 14.8113 92.0303 14.8294 92.2432 14.833L91.5173 11.9974C91.2564 12.1276 91.0444 12.2669 90.8794 12.4157C90.7144 12.5651 90.5914 12.721 90.5084 12.8834C90.4255 13.0454 90.3815 13.2099 90.3755 13.3759C90.3695 13.5424 90.3945 13.7073 90.4515 13.8708ZM93.988 21.6341C93.3811 21.7567 92.7812 21.787 92.1912 21.7259C91.6003 21.6644 91.0654 21.5195 90.5864 21.2916L90.8594 20.2532C90.8824 20.1614 90.9274 20.0776 90.9934 20.0019C91.0584 19.9262 91.1354 19.8728 91.2254 19.842C91.3333 19.8041 91.4643 19.8021 91.6143 19.8359C91.7643 19.8697 91.9373 19.9111 92.1323 19.96C92.3272 20.009 92.5442 20.0504 92.7832 20.0837C93.0222 20.117 93.2891 20.1109 93.5841 20.0635L92.7092 16.6311C92.3232 16.6543 91.9343 16.6584 91.5433 16.6437C91.1524 16.6291 90.7804 16.559 90.4285 16.4328C90.0775 16.3072 89.7575 16.1044 89.4716 15.8244C89.1856 15.5443 88.9546 15.1508 88.7787 14.6427C88.6467 14.2644 88.5937 13.8683 88.6207 13.4551C88.6457 13.0413 88.7537 12.6428 88.9426 12.2588C89.1316 11.8754 89.4036 11.5177 89.7615 11.1872C90.1185 10.8562 90.5694 10.5959 91.1144 10.4061L90.8674 9.42985C90.8364 9.30677 90.8484 9.18118 90.9044 9.05499C90.9604 8.92891 91.0594 8.84062 91.2034 8.79063L91.8803 8.55505L92.2612 10.0626C92.8162 9.96419 93.3211 9.95509 93.7771 10.0354C94.232 10.1161 94.648 10.2412 95.0239 10.4107L94.8119 11.2432C94.7779 11.3663 94.7339 11.4652 94.682 11.5389C94.63 11.6125 94.554 11.6665 94.455 11.7013C94.381 11.7271 94.285 11.7341 94.167 11.722C94.049 11.7104 93.912 11.6943 93.7581 11.6726C93.6031 11.6514 93.4351 11.6337 93.2521 11.6191C93.0691 11.605 92.8742 11.6095 92.6652 11.6317L93.4751 14.8052C93.869 14.7901 94.265 14.7875 94.66 14.7976C95.0539 14.8072 95.4279 14.8683 95.7808 14.9788C96.1328 15.0898 96.4498 15.2704 96.7307 15.5201C97.0117 15.7699 97.2337 16.1276 97.3946 16.5943C97.5556 17.0555 97.6286 17.5151 97.6156 17.9731C97.6016 18.4308 97.5026 18.8667 97.3147 19.2794C97.1277 19.6916 96.8527 20.07 96.4887 20.4137C96.1248 20.7572 95.6718 21.0453 95.1309 21.2779L95.4209 22.403C95.4509 22.5211 95.4379 22.6432 95.3819 22.7713C95.3269 22.899 95.2269 22.9878 95.0839 23.0383L94.407 23.2733L93.988 21.6341Z" fill="#F76D3E"/>
<path d="M69.279 11.7057C69.279 11.7057 69.258 10.3183 68.4391 10.3395C67.6202 10.3607 67.3892 11.1382 66.8223 10.8228C66.2553 10.5075 64.9125 11.2643 65.2894 12.5256C65.6674 13.787 63.9876 14.1446 65.0585 14.9645C66.1293 15.7844 67.3472 15.3218 67.3472 15.3218C67.3472 15.3218 66.9692 17.8444 67.8931 18.9585C68.817 20.0729 69.7409 19.8838 69.7409 19.8838C69.7409 19.8838 69.9089 20.6406 70.6018 20.409C71.2947 20.1779 73.8144 17.2557 74.1924 15.5741C74.5703 13.8925 74.3184 12.8834 74.3184 12.8834C74.3184 12.8834 74.4234 12.3157 73.7724 11.6427C73.1215 10.9701 71.9667 10.3183 69.279 11.7057Z" fill="#231547"/>
<path d="M72.3026 22.175C72.3026 22.175 72.7225 19.9046 72.9115 19.4843C73.1005 19.0641 73.4754 18.9571 74.3813 18.6225C74.9033 18.4294 75.2472 18.4546 75.1742 17.1206C75.0422 14.6973 74.2973 12.9884 74.2973 12.9884C74.2973 12.9884 72.9115 14.607 72.2186 14.6913C71.5257 14.7755 71.8406 15.9314 71.4627 15.8477C71.0847 15.7634 70.6428 15.2376 70.4118 16.2048C70.1818 17.172 70.7067 17.5505 71.2947 17.7396C71.8826 17.9288 71.6306 19.3583 70.8537 19.6523C70.0768 19.947 69.7409 19.8839 69.7409 19.8839C69.7409 19.8839 69.7619 21.1871 69.4889 21.2921C69.2159 21.3975 68.565 22.0489 69.7199 22.3223C70.8747 22.5958 72.2396 22.4904 72.3026 22.175Z" fill="#FFB2A8"/>
<path d="M66.6187 75.861C66.6187 75.861 66.7607 77.1195 67.3987 77.6523C68.0377 78.1847 70.7677 79.0011 71.1227 79.6758C71.4767 80.3504 70.5197 80.9539 70.5197 80.9539H63.8177C63.8177 80.9539 62.8957 80.3151 63.1787 79.1434C63.4627 77.9717 63.8877 75.861 63.8877 75.861H66.6187Z" fill="#231547"/>
<path d="M69.8152 76.4302C69.8152 76.4302 69.9412 77.5479 70.5082 78.0212C71.0752 78.494 73.5002 79.2196 73.8152 79.8185C74.1302 80.418 73.2802 80.9539 73.2802 80.9539H67.3262C67.3262 80.9539 66.5072 80.3862 66.7592 79.3457C67.0112 78.3048 67.3892 76.4302 67.3892 76.4302H69.8152Z" fill="#231547"/>
<path d="M72.3976 58.7513C72.2416 59.7957 70.9818 77.0457 70.3468 77.298C69.7219 77.5503 68.871 77.3889 68.493 77.298C68.1151 77.2022 67.0412 76.9499 67.0112 76.6977C67.0012 76.6119 66.9962 76.5261 66.9962 76.4353V76.4302C66.9962 76.2536 67.0112 76.0972 67.0112 76.0972C67.0112 76.0972 65.4034 76.7279 64.8995 76.7279C64.3955 76.7279 63.5796 76.6321 63.3577 76.2889C63.3377 76.2587 63.3177 76.1275 63.2927 75.9106C63.0307 73.5089 62.4958 60.5979 62.7887 59.387C63.1057 58.0601 63.2927 58.1863 63.1717 57.1166C63.0407 56.0419 61.4679 46.3296 61.8458 44.0592C62.2238 41.7888 62.7887 39.6445 62.7887 39.6445C62.7887 39.6445 67.4542 41.4104 68.775 41.4104C70.0949 41.4104 71.9546 40.1491 71.9546 40.1491C71.9546 40.1491 72.5546 57.712 72.3976 58.7513Z" fill="#41277A"/>
<path d="M92.4592 31.8545C92.0813 31.9503 89.3756 31.6679 88.8057 31.8545C88.2367 32.0462 82.7584 33.6557 81.6555 33.242C80.8486 32.9443 78.2989 31.4408 76.6011 30.2803C75.9762 29.8515 75.4672 29.468 75.2003 29.2056C74.1924 28.2269 76.0012 24.892 76.9331 25.674C76.9331 25.674 77.452 26.1129 78.1829 26.7284C79.8917 28.1563 82.7584 30.5326 82.9804 30.5579C83.2933 30.5932 84.5882 30.679 86.004 30.5579C87.4198 30.4368 88.2367 31.0573 88.9927 30.5579C89.7476 30.0583 90.5695 29.7102 90.5995 30.1239C90.6345 30.5326 89.8795 31.0371 90.2515 31.0977C90.6344 31.1633 92.3632 31.0018 93.2451 30.911C94.127 30.8152 92.8372 31.7586 92.4592 31.8545Z" fill="#FFB2A8"/>
<path d="M78.1833 26.7285L76.6013 30.2808C75.9763 29.8519 75.4673 29.4684 75.2003 29.206C74.1923 28.2271 76.0013 24.8918 76.9333 25.6739C76.9333 25.6739 77.4523 26.1129 78.1833 26.7285Z" fill="#F26173"/>
<path d="M69.8149 21.0085C69.8149 21.0085 70.1298 21.7335 70.7907 21.8596C71.4527 21.9858 72.0196 21.7335 72.3656 21.8596C72.7125 21.9858 75.8612 23.1528 76.5231 23.8778C77.184 24.6033 78.0029 25.8328 78.0349 26.1169C78.0659 26.4005 77.027 27.2203 76.5231 28.4503C76.0191 29.6799 75.7672 30.689 75.4842 30.6577C75.2002 30.6259 74.8223 30.2793 74.8223 30.2793C74.8223 30.2793 73.4684 35.0724 73.0275 36.1758C72.5865 37.2797 72.3346 39.5814 72.3346 40.086C72.3346 40.5905 72.5545 41.1268 72.1766 41.2842C71.7986 41.4422 69.3739 41.8837 68.303 41.8837C67.2322 41.8837 62.8537 40.2122 62.7907 39.6445C62.7277 39.0769 64.0505 31.8242 64.3975 30.6577C64.7435 29.4907 65.9093 26.3061 66.1923 25.1709C66.4763 24.0357 67.2632 22.4272 67.8301 21.5443C68.397 20.6614 69.7199 20.3147 69.7199 20.3147L69.8149 21.0085Z" fill="#DFEFED"/>
<path d="M74.8226 30.2795L72.6176 28.4186L74.1246 32.697L74.8226 30.2795Z" fill="#A6C0D1"/>
<path d="M66.8202 58.5394C67.0112 59.6393 67.0112 76.0972 67.0112 76.0972C67.0112 76.0972 65.4044 76.728 64.9004 76.728C64.3965 76.728 63.5796 76.6321 63.3576 76.289C63.3376 76.2587 63.3176 76.1275 63.2926 75.9106C64.0485 75.8551 64.7234 75.7895 64.9954 75.7189C65.7513 75.5322 65.7513 60.1438 65.8123 59.1953C65.8773 58.2468 65.0564 58.1862 65.4394 57.4294C65.8023 56.6979 64.5225 46.0623 64.4365 45.356C64.5675 46.0673 66.6382 57.4748 66.8202 58.5394Z" fill="#231547"/>
<path d="M66.9962 76.4302C66.9962 76.2536 67.0112 76.0972 67.0112 76.0972C67.0112 76.0972 67.0162 76.2284 66.9962 76.4302Z" fill="white"/>
<path d="M79.9237 6.81881C79.9237 6.81881 80.3907 5.27321 81.1967 4.86351C82.0027 4.45321 82.9797 4.26401 83.3577 4.86351C83.7357 5.46241 82.9477 7.29161 81.8767 7.44951C80.8057 7.60701 79.3687 8.03591 79.9237 6.81881Z" fill="#FFB2A8"/>
</svg>
