<svg width="300" height="155" viewBox="0 0 300 155" fill="none" xmlns="http://www.w3.org/2000/svg">
<g clip-path="url(#clip0_39_326)">
<path d="M106.532 46.2289H74.9176C74.9176 46.2289 76.4864 41.8548 81.2393 44.4016C81.7409 42.3374 84.1242 42.7304 84.1242 42.7304C84.5296 33.2111 98.14 31.8018 99.1945 42.4847C103.744 37.5692 108.885 41.3912 106.532 46.2289Z" fill="#E5E3E1"/>
<path d="M77.4048 75.1069H35.4871C35.4871 75.1069 36.4429 66.9524 45.0791 70.0656C45.7385 65.8713 49.1665 65.3798 50.0894 66.6247C52.6934 58.3016 63.7029 53.9102 68.7131 66.2969C73.8553 62.8894 76.7964 69.213 74.2053 72.9163C79.6239 70.3606 77.4048 75.1069 77.4048 75.1069Z" fill="#E5E3E1"/>
<path d="M259.782 124.69C259.782 124.69 261.937 124.71 262.836 121.53C263.735 118.35 266.07 121.207 268.135 118.707C270.202 116.206 271.998 113.527 272.268 115.314C272.537 117.1 271.998 125.405 269.753 127.994C267.507 130.584 270.92 134.245 268.315 136.298C265.711 138.352 263.285 137.013 262.387 139.067C261.488 141.12 251.967 147.015 246.039 143.71C240.111 140.406 253.764 124.779 259.782 124.69Z" fill="#678742"/>
<path d="M244.602 135.177C244.602 135.177 241.727 127.636 244.063 126.029C246.398 124.422 247.655 123.772 247.476 120.748C247.296 117.725 249.151 116.832 252.041 116.385C254.932 115.939 252.508 111.385 255.921 110.403C259.333 109.42 258.884 111.116 260.77 108.259C262.656 105.402 263.824 103.705 265.441 107.455C267.057 111.205 267.506 115.225 264.184 117.188C260.86 119.154 260.95 121.028 262.477 123.796C264.004 126.565 261.399 130.946 258.255 131.435C255.112 131.923 252.236 132.995 253.225 136.745C254.214 140.495 248.599 144.782 245.388 142.817C242.176 140.853 244.602 135.177 244.602 135.177Z" fill="#99B746"/>
<path d="M245.388 138.353L245.356 138.35C245.208 138.333 245.103 138.2 245.12 138.054C245.132 137.959 246.309 128.595 252.716 124.361C258.93 120.256 260.846 111.331 260.865 111.241C260.895 111.095 261.041 111 261.184 111.034C261.33 111.064 261.424 111.205 261.393 111.35C261.374 111.442 259.411 120.582 253.015 124.807C246.818 128.902 245.666 138.025 245.655 138.115C245.639 138.253 245.523 138.353 245.388 138.353Z" fill="#678742"/>
<path d="M33.6575 136.978C33.6575 136.978 29.256 127.075 35.7234 122.569C42.1907 118.064 46.2328 121.636 46.2328 121.636C46.2328 121.636 46.3226 116.724 49.2869 117.081C52.2511 117.439 52.6104 120.028 52.6104 120.028C52.6104 120.028 56.8323 111.635 61.2336 112.348C65.6347 113.063 66.7126 119.492 66.7126 119.492C66.7126 119.492 71.5037 110.514 79.12 114.342C86.7362 118.171 84.3183 124.642 84.3183 124.642C84.3183 124.642 88.3605 123.332 90.3365 127.708C92.3127 132.083 86.4741 140.679 86.4741 140.679H31.1425C31.1425 140.679 30.0645 135.085 33.6575 136.978Z" fill="#99B746"/>
<path d="M29.705 144.314H88.0392C88.0392 144.314 90.3365 134.522 86.9684 132.365C83.5999 130.207 80.7711 133.764 80.7711 133.764C80.7711 133.764 81.3545 130.565 79.019 129.047C76.6835 127.529 73.7192 129.583 73.7192 129.583C73.7192 129.583 74.0786 123.243 69.0481 122.618C64.0182 121.993 61.5931 127.618 61.5931 127.618C61.5931 127.618 59.2573 122.35 54.4968 123.778C49.736 125.207 50.7241 132.172 50.7241 132.172C50.7241 132.172 50.185 127.857 45.2449 130.149C40.3045 132.44 40.6637 138.585 40.6637 138.585C40.6637 138.585 41.2924 133.369 35.9029 132.191C30.5135 131.012 24.4054 137.974 29.705 144.314Z" fill="#678742"/>
<path d="M55.1072 144.315H92.6927C92.6927 144.315 94.1736 138.005 92.0036 136.615C89.8325 135.225 88.0099 137.517 88.0099 137.517C88.0099 137.517 88.3855 135.455 86.8813 134.478C85.3764 133.499 83.4661 134.823 83.4661 134.823C83.4661 134.823 83.6978 130.738 80.457 130.335C77.2155 129.932 75.6534 133.557 75.6534 133.557C75.6534 133.557 74.1485 130.163 71.0809 131.083C68.0138 132.004 68.6504 136.49 68.6504 136.49C68.6504 136.49 68.3028 133.712 65.1199 135.188C61.9364 136.664 62.1682 140.624 62.1682 140.624C62.1682 140.624 62.573 137.262 59.1007 136.503C55.6281 135.744 51.6926 140.229 55.1072 144.315Z" fill="#37664A"/>
<path d="M164.979 83.1981L163.724 86.8093L122.876 41.3913L82.0299 86.8093L80.7687 83.1981L122.876 35.6797L164.979 83.1981Z" fill="#E2582D"/>
<path d="M250.316 83.198H164.979L159.11 76.5758L151.08 67.5106L141.595 56.8057L133.564 47.7399L125.927 39.1247L122.876 35.6797H198.092L201.881 39.1247L211.345 47.7399L221.31 56.8057L233.075 67.5106L243.04 76.5758L250.316 83.198Z" fill="#F98D43"/>
<path d="M163.724 86.8093H250.315V83.1969H164.979L163.724 86.8093Z" fill="#E2582D"/>
<path d="M242.515 86.8092V141.727H163.724V86.8092H242.515Z" fill="#BAB4A8"/>
<path d="M85.0803 83.4176V141.727H163.724V86.8092L122.876 41.3912L85.0803 83.4176Z" fill="#E5E3E1"/>
<path d="M134.081 107.576V141.727H108.821V107.576C108.821 100.644 114.475 95.0227 121.454 95.0227C128.428 95.0227 134.081 100.644 134.081 107.576Z" fill="#918E88"/>
<path d="M121.721 95.0264V141.729C121.721 141.878 121.602 141.997 121.453 141.997C121.304 141.997 121.184 141.878 121.184 141.729V95.0264C121.274 95.02 121.363 95.02 121.453 95.02C121.542 95.02 121.632 95.02 121.721 95.0264Z" fill="#54514C"/>
<path d="M119.061 117.617V123.243C119.061 123.538 118.818 123.779 118.522 123.779C118.22 123.779 117.983 123.538 117.983 123.243V117.617C117.983 117.322 118.22 117.081 118.522 117.081C118.818 117.081 119.061 117.322 119.061 117.617Z" fill="#54514C"/>
<path d="M124.65 117.617V123.243C124.65 123.538 124.407 123.779 124.11 123.779C123.815 123.779 123.572 123.538 123.572 123.243V117.617C123.572 117.322 123.815 117.081 124.11 117.081C124.407 117.081 124.65 117.322 124.65 117.617Z" fill="#54514C"/>
<path d="M144.725 130.149H136.911V99.6018H144.725V130.149Z" fill="#918E88"/>
<path d="M154.203 130.149H146.387V99.6018H154.203V130.149Z" fill="#918E88"/>
<path d="M95.5473 130.149H87.7317V99.6018H95.5473V130.149Z" fill="#918E88"/>
<path d="M105.024 130.149H97.2091V99.6018H105.024V130.149Z" fill="#918E88"/>
<path d="M85.0803 83.4177V86.8092L122.874 44.6611L163.724 90.56V86.8092L122.876 41.3912L85.0803 83.4177Z" fill="#BAB4A8"/>
<path d="M237.379 86.8092V90.56H163.724V86.8092H237.379Z" fill="#918E88"/>
<path d="M173.245 86.8092V141.727H227.521V86.8092H173.245Z" fill="#918E88"/>
<path d="M240.524 142.799V143.244C240.524 143.838 240.038 144.315 239.445 144.315H81.2697C80.6768 144.315 80.1919 143.838 80.1919 143.244V142.799C80.1919 142.21 80.6768 141.727 81.2697 141.727H239.445C240.038 141.727 240.524 142.21 240.524 142.799Z" fill="#BAB4A8"/>
<path d="M201.881 39.1247H125.927L122.876 35.6797H198.092L201.881 39.1247Z" fill="#E2582D"/>
<path d="M221.31 56.8056H141.595L133.564 47.7397H211.345L221.31 56.8056Z" fill="#E2582D"/>
<path d="M243.04 76.5756H159.11L151.08 67.5104H233.075L243.04 76.5756Z" fill="#E2582D"/>
<path d="M159.336 33.1404V62.342L150.293 50.537V29.2489L159.336 33.1404Z" fill="white"/>
<path d="M169.29 33.1404V62.342H159.336V33.1404H169.29Z" fill="#D8D5CE"/>
<path d="M149.238 29.2461H160.992L170.429 33.5982H159.334L149.238 29.2461Z" fill="#918E88"/>
<path d="M170.426 33.5981V39.0195H159.336V33.5981H170.426Z" fill="#BAB4A8"/>
<path d="M159.336 33.5981V39.0195L149.236 34.263V29.249L159.336 33.5981Z" fill="#D8D5CE"/>
<path d="M189.224 83.1969H178.965L172.734 76.5758H182.895L189.224 83.1969Z" fill="#D44D38"/>
<path d="M189.435 83.4177H179.174L178.965 83.1969H189.224L189.435 83.4177Z" fill="#C8332D"/>
<path d="M174.231 67.5105H164.201L159.336 62.342H169.29L174.231 67.5105Z" fill="#D44D38"/>
<path d="M182.895 76.5756H172.734L164.201 67.5104H174.231L182.895 76.5756Z" fill="#C8332D"/>
<path d="M103.744 146.719C103.744 148.046 92.7727 149.123 79.2412 149.123C65.7088 149.123 54.7384 148.046 54.7384 146.719C54.7384 145.391 65.7088 144.315 79.2412 144.315C92.7727 144.315 103.744 145.391 103.744 146.719Z" fill="#E5E3E1"/>
<path d="M89.8426 60.7647C89.8624 60.6548 91.57 60.9493 91.7718 57.2657C91.9736 53.582 88.6728 53.8836 88.6728 53.8836C88.6728 53.8836 87.8302 51.4388 85.1017 51.4388C82.3739 51.4388 81.2393 52.7117 81.2393 52.7117C81.2393 52.7117 79.6227 50.6576 75.8952 53.113C72.1671 55.5689 72.2573 59.4088 74.0087 61.7306C75.7603 64.0524 75.0866 64.8556 74.2333 65.749C73.3799 66.6419 71.4935 73.0267 78.3651 71.0172C85.2367 69.0083 85.1471 65.4012 84.8772 61.4225C84.6079 57.4443 89.8426 60.7647 89.8426 60.7647Z" fill="#41277A"/>
<path d="M82.3374 66.5077C82.3374 66.5077 83.1035 66.0613 83.3281 65.0568C83.5526 64.0523 83.1932 62.4002 83.1484 61.9982C83.1035 61.5963 82.6766 60.9938 82.6766 60.9938C82.6766 60.9938 81.2393 61.1054 81.2393 59.7435C81.2393 58.3817 82.0704 57.8462 82.4969 58.0243C82.9238 58.203 82.9459 58.6494 83.3054 58.4042C83.6649 58.1585 83.1932 57.7566 83.5974 56.8862C84.0017 56.0153 85.7084 54.5864 86.6962 54.6981C87.6844 54.8096 87.8863 55.4128 87.8863 55.4128C87.8863 55.4128 89.593 55.7031 89.9524 57.9127C90.312 60.1229 89.2562 63.5162 88.6727 63.8066C88.0887 64.0969 87.7293 64.0969 87.7293 64.0969C87.7293 64.0969 87.7072 65.5923 87.8642 65.9723C88.0213 66.3516 88.6381 66.5309 88.6381 66.5309C88.6381 66.5309 89.1887 75.6162 86.4716 74.1761C83.7545 72.7364 82.3374 66.5077 82.3374 66.5077Z" fill="#FFB2A8"/>
<path d="M91.1 141.25C91.1655 141.887 91.8391 145.472 91.6391 145.906C91.4345 146.34 90.5938 147.009 89.6127 147.144C88.6375 147.277 86.3468 147.111 86.2125 146.506C86.1527 146.237 86.514 145.107 86.929 143.843C87.4408 142.278 88.0338 140.516 87.9962 139.975C87.9585 139.401 87.7752 136.535 87.6349 134.296C87.5382 132.752 87.4569 131.504 87.4569 131.504L92.5445 131.172C92.5445 131.172 92.0545 132.768 91.6391 134.349C91.3591 135.453 91.1109 136.546 91.1 137.097C91.0736 138.067 91.0464 139.471 91.0627 140.414C91.0682 140.778 91.0791 141.073 91.1 141.25Z" fill="#FFB2A8"/>
<path d="M91.6397 145.906C91.4352 146.341 90.5943 147.01 89.6131 147.144C88.6378 147.278 86.3468 147.112 86.2125 146.507C86.1527 146.238 86.514 145.108 86.9291 143.843C87.1232 144.497 88.169 145.204 89.2147 144.765C90.2546 144.33 89.9852 140.451 91.0633 140.414C91.0688 140.778 91.0797 141.073 91.1006 141.25C91.166 141.887 91.8398 145.472 91.6397 145.906Z" fill="#231547"/>
<path d="M77.5566 129.998C77.5566 129.998 77.2657 131.22 76.8776 132.784C76.533 134.156 76.118 135.795 75.7621 137.097C75.2933 138.802 74.8191 140.199 74.5331 141.293C74.3444 141.978 74.2316 142.541 74.2316 142.991C74.2316 144.154 74.9965 145.134 74.2316 145.713C73.4713 146.297 65.6085 147.009 65.4735 145.713C65.3391 144.422 66.3304 143.837 67.8556 143.215C68.0766 143.125 68.3082 142.996 68.556 142.841C70.0006 141.93 71.7252 140.034 72.0327 138.93C72.2591 138.115 72.4311 134.29 72.5284 131.557C72.5822 129.939 72.6144 128.702 72.6144 128.702L77.5566 129.998Z" fill="#FFB2A8"/>
<path d="M72.6144 128.702L77.5571 129.998C77.5571 129.998 77.2663 131.22 76.878 132.784C75.3259 132.405 73.8489 131.981 72.5284 131.558C72.5822 129.939 72.6144 128.702 72.6144 128.702Z" fill="#F26173"/>
<path d="M92.5451 131.172C92.5451 131.172 92.0551 132.768 91.6396 134.35C90.47 134.37 89.1119 134.36 87.6349 134.296C87.5382 132.752 87.4569 131.504 87.4569 131.504L92.5451 131.172Z" fill="#F26173"/>
<path d="M73.9478 95.1946C73.9478 95.1946 74.8173 100.553 74.3007 100.82C73.7842 101.088 73.2676 99.57 73.0431 100.016C72.8185 100.464 72.6616 103.075 72.302 103.254C71.9426 103.433 71.3812 102.852 71.1794 101.825C70.9769 100.798 71.2761 99.0119 71.4182 98.521C71.5609 98.03 72.2345 96.1319 72.2345 95.4401C72.2345 94.7482 73.7686 93.99 73.9478 95.1946Z" fill="#FFB2A8"/>
<path d="M76.1651 88.8989C76.1651 88.8989 74.9073 95.7091 74.638 95.91C74.3686 96.1109 71.9301 95.9546 71.7569 95.5081C71.5837 95.0608 72.3696 88.3188 72.3696 88.3188L76.1651 88.8989Z" fill="#41277A"/>
<path d="M109.646 77.4247C109.646 77.4247 111.713 78.4517 112.678 78.6298C113.644 78.8085 115.867 78.0718 115.934 78.6298C116.002 79.1879 114.003 79.4117 114.586 79.7684C115.171 80.1259 116.294 80.5052 117.215 80.7064C118.135 80.9071 118.36 80.9741 118.382 81.2864C118.405 81.5993 117.147 83.8986 116.518 83.787C115.889 83.6753 112.005 82.0012 111.196 81.3316C110.387 80.6613 108.884 79.9471 108.884 79.9471L109.646 77.4247Z" fill="#FFB2A8"/>
<path d="M104.886 74.4552C104.991 74.5793 106.795 75.572 107.941 76.2637C109.086 76.956 110.591 77.3354 110.613 77.6038C110.635 77.8716 109.804 80.8634 109.333 80.9524C108.862 81.042 103.853 78.8761 103.224 78.0051C102.595 77.1347 104.392 73.8751 104.886 74.4552Z" fill="#41277A"/>
<path d="M96.8245 131.005C96.6891 132.881 94.8036 132.077 93.1164 132.677C91.4345 133.277 86.9184 132.741 86.584 132.677C86.2502 132.613 87.1877 128.187 87.1877 125.846C87.1877 123.505 87.328 112.719 87.1877 111.246C87.0587 109.773 85.1018 98.59 85.1018 98.59C85.1018 98.59 81.6686 111.112 81.3994 112.789C81.13 114.461 80.5209 129.596 80.4511 131.07C80.4027 132.201 78.8071 132.42 77.0072 131.831C76.4572 131.654 75.8863 131.402 75.3309 131.07C72.9757 129.666 71.828 130.132 71.4935 129.934C71.1597 129.73 72.0328 127.115 72.3021 123.097C72.5714 119.079 76.0744 97.9845 76.9481 94.3691C77.8265 90.7523 80.4511 84.0545 80.4511 84.0545L92.6473 83.3849C92.6473 83.3849 95.3418 88.2073 95.8809 93.1627C96.42 98.1191 95.3418 108.701 95.0727 112.382C94.8036 116.068 96.9591 129.13 96.8245 131.005Z" fill="#41277A"/>
<path d="M104.1 78.1506C103.292 79.0772 102.348 77.893 100.662 77.4916C98.98 77.0897 94.0645 73.7409 94.0645 73.7409C94.0645 73.7409 94.0382 74.1268 93.9836 74.743C93.9245 75.4821 93.8327 76.559 93.7254 77.6952C93.6064 78.9484 93.9245 80.5668 94.1945 81.8312L94.2 81.8366V81.842C94.3773 82.6671 94.5336 83.3368 94.5336 83.6526C94.5336 84.4564 92.7818 84.3229 91.3 84.7889C89.8176 85.2602 87.0587 85.4639 85.3717 84.9278C84.4814 84.6452 83.0852 84.9029 81.8669 85.16C80.7771 85.3902 79.8288 85.6206 79.5135 85.4639C78.8339 85.1261 79.3087 83.3849 79.443 82.1798C79.578 80.974 79.1737 78.7662 78.9743 78.4984L78.9366 78.5199C78.6237 79.104 77.0664 88.4482 76.6136 89.2788C76.1395 90.1467 73.515 89.7501 72.6365 89.2788C71.7629 88.8074 71.8978 86.5996 71.7629 84.7889C71.6285 82.983 73.7138 73.339 74.9972 70.1242C76.2793 66.9096 82.3375 66.5077 82.3375 66.5077C82.3375 66.5077 85.9808 72.198 86.7189 72.4016C87.457 72.6052 88.4919 66.5077 88.4919 66.5077C88.4919 66.5077 94.1291 67.3756 96.49 68.1794C98.8445 68.9832 104.973 73.9445 105.178 74.6088C105.383 75.2838 104.908 77.2232 104.1 78.1506Z" fill="#FC4254"/>
<path d="M78.9713 78.7646C78.8316 78.7646 78.7133 78.6571 78.7032 78.5158L78.3657 73.8942C78.355 73.7469 78.4667 73.6187 78.6154 73.6081C78.7635 73.5991 78.8925 73.7078 78.9033 73.8556L79.2401 78.4772C79.2508 78.625 79.1397 78.7533 78.9911 78.7639L78.9713 78.7646Z" fill="#BA153D"/>
<path d="M94.062 74.0091C93.972 74.0091 93.8829 73.9634 93.832 73.8803L92.4836 71.6698C92.4073 71.5433 92.4482 71.3783 92.5746 71.3017C92.7028 71.2257 92.8682 71.2654 92.9446 71.3919L94.2929 73.6024C94.3702 73.7288 94.3284 73.8939 94.202 73.9705L94.062 74.0091Z" fill="#BA153D"/>
<path d="M79.5134 85.4641C79.2442 85.3299 79.1558 84.9754 79.1564 84.5213C79.157 83.8297 79.3618 82.9072 79.443 82.1799C79.4615 82.0125 79.4699 81.8261 79.4699 81.6284C79.4699 80.6151 79.2495 79.3019 79.0764 78.7433C79.1796 78.6999 79.2489 78.5943 79.24 78.4767L79.025 75.5221C79.0841 75.5553 79.1545 75.6289 79.2382 75.75C79.2382 75.75 80.8607 78.9647 83.954 79.0988C84.0573 79.1036 84.1576 79.1053 84.2544 79.1053C85.6129 79.1053 86.3665 78.6844 86.8777 78.263C87.3889 77.8414 87.6576 77.42 88.0475 77.42C88.0763 77.42 88.1061 77.4223 88.1365 77.4271C88.5438 77.4871 89.1942 77.6034 89.9185 77.6034C90.7468 77.6034 91.6718 77.4514 92.4427 76.8916C93.2945 76.2753 93.7473 75.3807 93.9836 74.7432C93.9245 75.4823 93.8327 76.5592 93.7255 77.6954C93.7073 77.8813 93.7 78.0753 93.7 78.2754C93.7 79.4212 93.9645 80.7545 94.1945 81.8314C94.1127 81.7186 93.4882 80.8293 92.9173 80.7064C92.7045 80.6595 91.7864 80.6293 90.576 80.6293C88.3175 80.6293 85.0396 80.735 83.4154 81.0383C80.9252 81.5097 79.5134 82.9832 79.5134 85.4641Z" fill="#CA2043"/>
<path d="M79.0764 78.7434C79.0393 78.6241 79.0041 78.5392 78.9742 78.4988L78.9367 78.5202C78.8315 77.7597 78.5652 75.5005 78.9539 75.5005C78.9755 75.5005 78.9993 75.5076 79.025 75.5219L79.24 78.4768C79.249 78.5944 79.1797 78.7001 79.0764 78.7434Z" fill="#BA153D"/>
<path d="M85.1017 98.59C85.1017 98.59 81.6686 111.112 81.3994 112.789C81.13 114.461 80.5209 129.596 80.451 131.07C80.4026 132.201 78.807 132.42 77.0072 131.831C78.2033 125.647 78.6888 113.475 78.7479 112.853C78.8177 112.141 78.2302 111.514 78.7479 110.887C79.2704 110.265 83.0809 98.0281 82.9244 97.1009C82.8869 96.8972 82.7633 96.71 82.5853 96.5391C82.2294 96.2063 82.4395 95.6163 82.9298 95.6163H84.6981L85.1017 98.59Z" fill="#231547"/>
<path d="M74.2316 145.713C73.4713 146.297 65.6085 147.009 65.4735 145.713C65.3391 144.422 66.3304 143.837 67.8556 143.216C68.0766 143.126 68.3082 142.996 68.556 142.841C69.3431 143.066 70.5184 143.313 71.5096 143.189C73.0563 143.007 72.701 141.056 74.5331 141.293C74.3444 141.978 74.2316 142.541 74.2316 142.991C74.2316 144.154 74.9965 145.134 74.2316 145.713Z" fill="#231547"/>
<path d="M84.5297 62.4562C84.5297 62.4562 85.3718 63.4275 86.1798 63.7285C86.9886 64.0301 87.7296 64.0972 87.7296 64.0972V66.0061C87.7296 66.0061 84.8325 64.4653 84.5297 62.4562Z" fill="#F26173"/>
<path d="M78.7496 61.1001C78.6797 61.1001 78.6117 61.064 78.5746 60.9998C76.0248 56.6132 81.0631 52.5936 81.1145 52.5538C81.2028 52.485 81.3288 52.4998 81.3981 52.5871C81.4674 52.6743 81.4525 52.8001 81.3646 52.8691C81.3163 52.9071 76.5509 56.7148 78.9246 60.7986C78.9802 60.8948 78.9473 61.0176 78.8506 61.0729L78.7496 61.1001Z" fill="#231547"/>
<path d="M234.991 56.8055H178.867C177.548 56.8055 176.478 57.8688 176.478 59.1802V142.835C176.478 144.146 177.548 145.21 178.867 145.21H234.991C236.31 145.21 237.38 144.146 237.38 142.835V59.1802C237.38 57.8688 236.31 56.8055 234.991 56.8055Z" fill="#EFEFEF"/>
<path d="M200.602 80.4469H184.917C183.927 80.4469 183.125 81.2442 183.125 82.2279V97.82C183.125 98.8045 183.927 99.6018 184.917 99.6018H200.602C201.591 99.6018 202.393 98.8045 202.393 97.82V82.2279C202.393 81.2442 201.591 80.4469 200.602 80.4469Z" fill="white"/>
<path d="M183.125 66.8514H231.496C231.794 66.8514 232.035 66.6116 232.035 66.3154C232.035 66.0197 231.794 65.7799 231.496 65.7799H183.125C182.827 65.7799 182.586 66.0197 182.586 66.3154C182.586 66.6116 182.827 66.8514 183.125 66.8514Z" fill="#BAB4A8"/>
<path d="M231.496 73.6827H183.125C182.827 73.6827 182.586 73.9226 182.586 74.2183C182.586 74.5145 182.827 74.7543 183.125 74.7543H231.496C231.794 74.7543 232.035 74.5145 232.035 74.2183C232.035 73.9226 231.794 73.6827 231.496 73.6827Z" fill="#BAB4A8"/>
<path d="M231.495 81.5856H207.311C207.013 81.5856 206.772 81.8255 206.772 82.1211C206.772 82.4173 207.013 82.6572 207.311 82.6572H231.495C231.794 82.6572 232.035 82.4173 232.035 82.1211C232.035 81.8255 231.794 81.5856 231.495 81.5856Z" fill="#BAB4A8"/>
<path d="M231.495 89.4884H207.311C207.013 89.4884 206.772 89.7283 206.772 90.0239C206.772 90.3201 207.013 90.56 207.311 90.56H231.495C231.794 90.56 232.035 90.3201 232.035 90.0239C232.035 89.7283 231.794 89.4884 231.495 89.4884Z" fill="#BAB4A8"/>
<path d="M231.495 97.3909H207.311C207.013 97.3909 206.772 97.6309 206.772 97.9263C206.772 98.2227 207.013 98.4627 207.311 98.4627H231.495C231.794 98.4627 232.035 98.2227 232.035 97.9263C232.035 97.6309 231.794 97.3909 231.495 97.3909Z" fill="#BAB4A8"/>
<path d="M231.496 105.294H183.125C182.827 105.294 182.586 105.534 182.586 105.83C182.586 106.125 182.827 106.365 183.125 106.365H231.496C231.794 106.365 232.035 106.125 232.035 105.83C232.035 105.534 231.794 105.294 231.496 105.294Z" fill="#BAB4A8"/>
<path d="M231.496 113.197H183.125C182.827 113.197 182.586 113.436 182.586 113.733C182.586 114.028 182.827 114.268 183.125 114.268H231.496C231.794 114.268 232.035 114.028 232.035 113.733C232.035 113.436 231.794 113.197 231.496 113.197Z" fill="#BAB4A8"/>
<path d="M218.157 120.43H183.125C182.827 120.43 182.586 120.669 182.586 120.965C182.586 121.262 182.827 121.502 183.125 121.502H218.157C218.455 121.502 218.696 121.262 218.696 120.965C218.696 120.669 218.455 120.43 218.157 120.43Z" fill="#BAB4A8"/>
<path d="M205.565 135.123L202.58 127.287C202.476 127.015 202.172 126.875 201.895 126.972L188.101 131.835C187.812 131.935 187.666 132.255 187.78 132.538L190.884 140.252C190.991 140.517 191.289 140.653 191.562 140.558L205.238 135.818C205.525 135.719 205.673 135.405 205.565 135.123Z" fill="white"/>
<path d="M191.689 56.7414C191.576 59.0935 191.043 60.599 190.045 61.3435C189.727 61.5791 189.409 61.6652 189.114 61.6652C188.45 61.6652 187.879 61.2258 187.647 61.0437C187.41 60.8668 187.367 60.5289 187.55 60.2933C187.733 60.0629 188.073 60.0202 188.305 60.2024C188.978 60.7166 189.205 60.631 189.399 60.4862C190.111 59.9508 190.519 58.6755 190.612 56.6927C190.665 55.5357 190.547 54.0996 189.668 53.8372C189.361 53.741 189.199 53.8211 189.092 53.8959C188.494 54.3353 188.256 55.9108 188.245 56.8055H187.167V56.8001C187.167 56.511 187.226 53.928 188.45 53.0334C188.892 52.7176 189.42 52.6368 189.986 52.8084C191.221 53.1836 191.792 54.5068 191.689 56.7414Z" fill="#41277A"/>
<path d="M202.614 56.7414C202.505 59.0935 201.967 60.599 200.97 61.3435C200.657 61.5791 200.339 61.6652 200.043 61.6652C199.375 61.6652 198.809 61.2258 198.572 61.0437C198.335 60.8668 198.292 60.5289 198.475 60.2933C198.657 60.0629 198.997 60.0202 199.235 60.2024C199.903 60.7166 200.135 60.631 200.323 60.4862C201.035 59.9508 201.444 58.6755 201.536 56.6927C201.59 55.5357 201.471 54.0996 200.598 53.8372C200.285 53.741 200.124 53.8211 200.016 53.8959C199.418 54.3353 199.181 55.9108 199.17 56.8055H198.092V56.8001C198.097 56.511 198.151 53.928 199.38 53.0334C199.816 52.7176 200.345 52.6368 200.911 52.8084C202.145 53.1836 202.716 54.5068 202.614 56.7414Z" fill="#41277A"/>
<path d="M213.538 56.7414C213.43 59.0935 212.897 60.599 211.9 61.3435C211.582 61.5791 211.264 61.6652 210.967 61.6652C210.299 61.6652 209.734 61.2258 209.496 61.0437C209.265 60.8668 209.221 60.5289 209.405 60.2933C209.587 60.0629 209.927 60.0202 210.159 60.2024C210.833 60.7166 211.059 60.631 211.253 60.4862C211.965 59.9508 212.374 58.6755 212.466 56.6927C212.52 55.5357 212.395 54.0996 211.523 53.8372C211.215 53.741 211.054 53.8211 210.945 53.8959C210.343 54.3353 210.105 55.9108 210.1 56.8055H209.022V56.8001C209.022 56.511 209.081 53.928 210.305 53.0334C210.741 52.7176 211.275 52.6368 211.841 52.8084C213.075 53.1836 213.646 54.5068 213.538 56.7414Z" fill="#41277A"/>
<path d="M224.468 56.7414C224.36 59.0935 223.821 60.599 222.825 61.3435C222.512 61.5791 222.194 61.6652 221.892 61.6652C221.229 61.6652 220.658 61.2258 220.426 61.0437C220.189 60.8668 220.145 60.5289 220.329 60.2933C220.512 60.0629 220.852 60.0202 221.084 60.2024C221.757 60.7166 221.984 60.631 222.177 60.4862C222.604 60.165 222.921 59.5862 223.121 58.745C223.255 58.2036 223.342 57.5607 223.385 56.8055L223.39 56.6927C223.445 55.5357 223.325 54.0996 222.453 53.8372C222.14 53.741 221.978 53.8211 221.87 53.8959C221.273 54.3353 221.035 55.9108 221.024 56.8055H219.946V56.8001C219.952 56.511 220.005 53.928 221.235 53.0334C221.671 52.7176 222.199 52.6368 222.765 52.8084C223.999 53.1836 224.571 54.5068 224.468 56.7414Z" fill="#41277A"/>
<path d="M261.144 80.4606C261.144 80.6963 261.105 80.9374 261.014 81.173L259.543 85.0787L247.605 116.733L246.199 120.462L242.948 119.069L244.236 115.512L255.803 83.5465L257.172 79.769C257.57 78.6547 258.836 78.1192 259.925 78.5959C260.685 78.9331 261.144 79.6782 261.144 80.4606Z" fill="#FC4254"/>
<path d="M259.926 78.5961C258.837 78.1193 257.57 78.6549 257.172 79.7693L255.803 83.5472L259.543 85.0796L261.014 81.1734C261.106 80.9378 261.144 80.6967 261.144 80.461C261.144 79.6785 260.686 78.9333 259.926 78.5961Z" fill="#41277A"/>
<path d="M260.169 83.4176C260.169 83.4176 262.62 83.7946 262.71 85.0787C262.8 86.3628 255.884 102.168 255.165 102.168C254.446 102.168 255.704 97.3463 256.646 94.7118C257.59 92.0781 260.509 84.7557 260.509 84.7557L259.809 84.3716L260.169 83.4176Z" fill="#41277A"/>
<path d="M246.199 120.462L242.948 119.07L244.236 115.512L247.606 116.733L246.199 120.462Z" fill="#CA2043"/>
<path d="M246.753 118.621L243.256 117.5C242.69 117.318 242.082 117.628 241.9 118.191L238.445 128.867C238.256 129.451 238.598 130.072 239.194 130.23L242.518 131.112C243.065 131.256 243.63 130.957 243.815 130.426L247.44 119.99C247.637 119.423 247.326 118.805 246.753 118.621Z" fill="#41277A"/>
<path d="M252.178 132.92C252.178 130.608 247.095 128.734 240.826 128.734C234.557 128.734 229.475 130.608 229.475 132.92C229.475 135.232 234.557 137.106 240.826 137.106C247.095 137.106 252.178 135.232 252.178 132.92Z" fill="#634C47"/>
<path d="M252.331 133.489H228.715C228.056 133.489 227.521 134.021 227.521 134.676V144.023C227.521 144.678 228.056 145.21 228.715 145.21H252.331C252.991 145.21 253.525 144.678 253.525 144.023V134.676C253.525 134.021 252.991 133.489 252.331 133.489Z" fill="#A06352"/>
<path d="M164.979 149.228H38.9572C38.6595 149.228 38.4181 148.989 38.4181 148.693C38.4181 148.396 38.6595 148.156 38.9572 148.156H164.979C165.277 148.156 165.518 148.396 165.518 148.693C165.518 148.989 165.277 149.228 164.979 149.228Z" fill="#E5E3E1"/>
<path d="M240.524 149.228H173.245C172.947 149.228 172.706 148.989 172.706 148.693C172.706 148.396 172.947 148.156 173.245 148.156H240.524C240.821 148.156 241.063 148.396 241.063 148.693C241.063 148.989 240.821 149.228 240.524 149.228Z" fill="#E5E3E1"/>
<path d="M217.079 154.05H83.2857C82.9877 154.05 82.7465 153.811 82.7465 153.515C82.7465 153.218 82.9877 152.979 83.2857 152.979H217.079C217.377 152.979 217.618 153.218 217.618 153.515C217.618 153.811 217.377 154.05 217.079 154.05Z" fill="#E5E3E1"/>
<path d="M69.1359 96.9528H42.8749C42.8749 96.9528 45.6982 92.8091 50.2621 95.9573C56.334 88.763 62.9863 90.6401 62.9863 94.7764C69.0971 91.4164 69.9863 94.9537 69.1359 96.9528Z" fill="#E5E3E1"/>
</g>
<defs>
<clipPath id="clip0_39_326">
<rect width="300" height="154.545" fill="white"/>
</clipPath>
</defs>
</svg>
