<svg width="330" height="170" viewBox="0 0 330 170" fill="none" xmlns="http://www.w3.org/2000/svg">
<g clip-path="url(#clip0_24_953)">
<g clip-path="url(#clip1_24_953)">
<g clip-path="url(#clip2_24_953)">
<path d="M158.365 164.447C158.365 167.406 126.029 169.805 86.1389 169.805C46.2492 169.805 13.9125 167.406 13.9125 164.447C13.9125 161.487 46.2492 159.088 86.1389 159.088C126.029 159.088 158.365 161.487 158.365 164.447Z" fill="#E5E3E1"/>
<path d="M99.2122 79.2601H177.89V73.9182H99.2122V79.2601Z" fill="#BAB4A8"/>
<path d="M99.2122 73.9182L115.785 49.8267H186.49L177.89 73.9182H99.2122Z" fill="#E2582D"/>
<path d="M101.434 133.736H177.89V79.2603H101.434V133.736Z" fill="#E5E3E1"/>
<path d="M148.867 82.3437H144.792C144.798 82.2892 144.805 82.2346 144.812 82.1801C144.944 81.1303 145.054 80.1372 145.125 79.26H150.883H148.867V82.3437Z" fill="#CECAC2"/>
<path d="M155.026 133.736H148.867V95.1199H155.026V133.736ZM148.867 89.7003V82.3435H150.883V83.3259L151.884 82.3435H155.026V86.0724L148.867 89.7003Z" fill="#CECAC2"/>
<path d="M155.027 82.3437H151.884L155.027 79.26V82.3437ZM150.883 82.3437H148.867V79.26H150.883V82.3437Z" fill="#C3BEB4"/>
<path d="M300.494 117.792C300.494 117.792 301.7 110.545 304.669 109.331C307.638 108.117 307.397 107.032 307.968 103.352C308.539 99.6719 313.54 101.705 315.341 98.5288C317.143 95.3536 318.909 93.4582 320.385 97.1272C321.861 100.797 319.661 104.434 317.394 105.338C315.126 106.242 318.198 110.174 316.364 112.507C314.529 114.839 312.215 115.527 312.889 118.563C313.563 121.599 313.628 123.284 312.481 124.885C311.333 126.487 309.418 128.284 309.418 128.284L296.48 126.277C296.48 126.277 294.685 121.497 297.24 121.37C299.796 121.243 300.69 121.277 300.494 117.792Z" fill="#678742"/>
<path d="M301.83 127.107C301.83 127.107 306.326 120.267 310.581 111.82C314.835 103.371 314.835 103.371 314.835 103.371C314.835 103.371 307.287 122.51 301.83 127.107Z" fill="#37664A"/>
<path d="M316.243 136.481C316.243 136.481 316.305 132.065 318.419 131.071C320.533 130.075 320.222 129.454 320.222 127.215C320.222 124.976 324.263 125.722 325.258 123.67C326.253 121.618 327.372 120.329 328.927 122.374C330.481 124.416 329.237 126.78 327.621 127.526C326.004 128.272 328.802 130.324 327.683 131.878C326.564 133.433 324.885 134.056 325.755 135.797C326.626 137.538 326.874 138.533 326.19 139.59C325.507 140.646 324.263 141.89 324.263 141.89H314.191C314.191 141.89 312.265 139.217 314.191 138.906C316.118 138.596 316.803 138.533 316.243 136.481Z" fill="#37664A"/>
<path d="M318.357 141.89C318.357 141.89 320.969 137.413 323.206 132.003C325.445 126.593 325.445 126.593 325.445 126.593C325.445 126.593 321.963 138.658 318.357 141.89Z" fill="#37664A"/>
<path d="M304.165 133.121C304.165 133.121 304.265 125.964 307.691 124.351C311.118 122.738 310.614 121.731 310.614 118.102C310.614 114.473 317.164 115.682 318.777 112.357C320.39 109.029 322.203 106.94 324.722 110.253C327.242 113.566 325.227 117.396 322.606 118.606C319.986 119.816 324.521 123.141 322.707 125.662C320.893 128.182 318.172 129.19 319.583 132.012C320.994 134.835 321.398 136.448 320.289 138.161C319.18 139.875 317.164 141.89 317.164 141.89H300.838C300.838 141.89 297.714 137.557 300.838 137.053C303.963 136.548 305.071 136.448 304.165 133.121Z" fill="#99B746"/>
<path d="M307.59 141.89C307.59 141.89 311.823 134.633 315.451 125.863C319.079 117.094 319.079 117.094 319.079 117.094C319.079 117.094 313.436 136.649 307.59 141.89Z" fill="#678742"/>
<path d="M150.883 141.89C150.883 141.89 141.719 138.803 142.053 136.101C142.33 133.864 146.045 134.936 146.045 134.936C146.045 134.936 139.829 130.927 143.054 127.858C145.226 125.792 148.161 130.299 148.161 130.299C148.161 130.299 146.958 126.085 148.973 125.984C150.99 125.884 151.588 131.609 151.588 131.609C151.588 131.609 152.696 124.351 155.619 125.763C158.542 127.174 157.131 141.387 157.131 141.387L150.883 141.89Z" fill="#678742"/>
<path d="M223.307 139.214H305.944V81.2932H223.307V139.214Z" fill="#BAB4A8"/>
<path d="M155.026 79.2601V139.214H223.307V79.2601L188.506 45.1221L155.026 79.2601Z" fill="#E5E3E1"/>
<path d="M311.054 79.2578H224.853L219.935 74.1931L212.373 66.4111L206.278 60.1377L202.464 56.2108L198.353 51.9769L194.435 47.9447L191.693 45.1221L187.872 41.187H274.37L278.16 45.1221L280.884 47.9447L284.771 51.9769L288.85 56.2108L292.631 60.1377L298.678 66.4111L306.176 74.1931L311.054 79.2578Z" fill="#E2582D"/>
<path d="M150.883 79.0921V83.326L188.069 46.8361L224.853 83.326V78.8904L187.867 41.1917L150.883 79.0921Z" fill="#F98D43"/>
<path d="M224.853 83.3259H311.051V79.2603H224.853V83.3259Z" fill="#E2582D"/>
<path d="M143.089 93.1033L155.182 85.9802H202.077L190.924 93.1033H143.089Z" fill="#F98D43"/>
<path d="M202.077 85.9802V88.5339L191.193 95.1197H143.089V93.1033H190.924L202.077 85.9802Z" fill="#E2582D"/>
<path d="M305.944 85.9803H223.307V81.7927L224.853 83.3258H305.944V85.9803Z" fill="#89857C"/>
<path d="M223.307 85.9803L187.867 50.6328L155.026 83.3258V79.26L188.069 46.8359L223.307 81.7927V85.9803Z" fill="#A09D9A"/>
<path d="M297.479 131.408H273.696V91.3564H297.479V131.408Z" fill="#E5E3E1"/>
<path d="M285.584 93.1056V129.66H275.305V93.1056H285.584Z" fill="#75726D"/>
<path d="M295.863 93.1056V129.66H286.729V93.1056H295.863Z" fill="#75726D"/>
<path d="M217.664 129.661H205.033V91.3567H217.664V129.661Z" fill="white"/>
<path d="M216.185 93.1056V127.91H206.51V93.1056H216.185Z" fill="#75726D"/>
<path d="M202.078 88.5339V139.214H155.026V95.1198H191.194L202.078 88.5339Z" fill="#BAB4A8"/>
<path d="M186.49 139.214H165.529V98.4796H186.49V139.214Z" fill="#54514C"/>
<path d="M169.067 118.217C169.067 118.847 168.659 119.359 168.155 119.359C167.652 119.359 167.243 118.847 167.243 118.217C167.243 117.585 167.652 117.074 168.155 117.074C168.659 117.074 169.067 117.585 169.067 118.217Z" fill="#BAB4A8"/>
<path d="M280.884 47.9446H194.435L191.693 45.1221H278.16L280.884 47.9446Z" fill="#EA7A2F"/>
<path d="M288.849 56.2107H202.464L198.353 51.9768H284.771L288.849 56.2107Z" fill="#EA7A2F"/>
<path d="M298.678 66.4112H212.372L206.278 60.1377H292.631L298.678 66.4112Z" fill="#EA7A2F"/>
<path d="M311.054 79.2578H224.853L219.935 74.1931H306.176L311.054 79.2578Z" fill="#EA7A2F"/>
<path d="M311.051 141.89H150.883V139.214H311.051V141.89Z" fill="#A89F91"/>
<path d="M275.305 110.854L285.584 121.136V125.272L275.305 114.991V110.854Z" fill="#54514C"/>
<path d="M294.107 129.661H289.97L286.729 126.419V122.282L294.107 129.661Z" fill="#54514C"/>
<path d="M295.863 100.492L288.477 93.1056H295.863V100.492Z" fill="#54514C"/>
<path d="M279.11 93.1056L285.584 99.5808V109.435L275.305 99.1535V93.1056H279.11Z" fill="#54514C"/>
<path d="M295.863 109.87V119.725L286.729 110.58V100.726L295.863 109.87Z" fill="#54514C"/>
<path d="M261.355 131.408H237.57V91.3564H261.355V131.408Z" fill="#E5E3E1"/>
<path d="M249.458 93.1056V129.66H239.179V93.1056H249.458Z" fill="#75726D"/>
<path d="M259.738 93.1056V129.66H250.604V93.1056H259.738Z" fill="#75726D"/>
<path d="M239.179 110.854L249.458 121.136V125.272L239.179 114.991V110.854Z" fill="#54514C"/>
<path d="M257.981 129.661H253.845L250.604 126.419V122.282L257.981 129.661Z" fill="#54514C"/>
<path d="M259.739 100.492L252.353 93.1056H259.739V100.492Z" fill="#54514C"/>
<path d="M242.985 93.1056L249.458 99.5808V109.435L239.179 99.1535V93.1056H242.985Z" fill="#54514C"/>
<path d="M259.738 109.87V119.725L250.604 110.58V100.726L259.738 109.87Z" fill="#54514C"/>
<path d="M216.185 106.838V109.782L206.51 100.113V97.1617L216.185 106.838Z" fill="#BAB4A8"/>
<path d="M216.185 121.16V127.506L206.51 117.837V111.483L216.185 121.16Z" fill="#BAB4A8"/>
<path d="M216.186 95.9121V101.589L207.712 93.1056H213.38L216.186 95.9121Z" fill="#BAB4A8"/>
<path d="M37.8884 151.414H125.238V31.6426H37.8884V151.414Z" fill="#E5E3E1"/>
<path d="M115.131 49.132H46.7363C46.271 49.132 45.8936 48.7548 45.8936 48.2892C45.8936 47.8238 46.271 47.4465 46.7363 47.4465H115.131C115.596 47.4465 115.974 47.8238 115.974 48.2892C115.974 48.7548 115.596 49.132 115.131 49.132Z" fill="#BAB4A8"/>
<path d="M115.131 64.2294H46.7363C46.271 64.2294 45.8936 63.8521 45.8936 63.3866C45.8936 62.9212 46.271 62.5439 46.7363 62.5439H115.131C115.596 62.5439 115.974 62.9212 115.974 63.3866C115.974 63.8521 115.596 64.2294 115.131 64.2294Z" fill="#BAB4A8"/>
<path d="M87.3946 96.286H46.7363C46.271 96.286 45.8936 95.9087 45.8936 95.4425C45.8936 94.9778 46.271 94.5997 46.7363 94.5997H87.3946C87.86 94.5997 88.2372 94.9778 88.2372 95.4425C88.2372 95.9087 87.86 96.286 87.3946 96.286Z" fill="#BAB4A8"/>
<path d="M87.3946 106.125H46.7363C46.271 106.125 45.8936 105.749 45.8936 105.283C45.8936 104.817 46.271 104.44 46.7363 104.44H87.3946C87.86 104.44 88.2372 104.817 88.2372 105.283C88.2372 105.749 87.86 106.125 87.3946 106.125Z" fill="#BAB4A8"/>
<path d="M115.131 76.3737H59.6592C59.1939 76.3737 58.8167 75.9965 58.8167 75.531C58.8167 75.0656 59.1939 74.6882 59.6592 74.6882H115.131C115.596 74.6882 115.974 75.0656 115.974 75.531C115.974 75.9965 115.596 76.3737 115.131 76.3737Z" fill="#BAB4A8"/>
<path d="M115.131 87.3147H59.6592C59.1939 87.3147 58.8167 86.9374 58.8167 86.4719C58.8167 86.0065 59.1939 85.6284 59.6592 85.6284H115.131C115.596 85.6284 115.974 86.0065 115.974 86.4719C115.974 86.9374 115.596 87.3147 115.131 87.3147Z" fill="#BAB4A8"/>
<path d="M97.6719 39.4393H64.7767C64.3643 39.4393 64.0297 39.1046 64.0297 38.6922V27.5437C64.0297 27.1306 64.3643 26.7966 64.7767 26.7966H97.6719C98.0843 26.7966 98.4188 27.1306 98.4188 27.5437V38.6922C98.4188 39.1046 98.0843 39.4393 97.6719 39.4393Z" fill="#F98D43"/>
<path d="M106.684 119.747H96.243C96.243 119.747 96.9847 118.556 97.8354 114.193C98.6862 109.821 97.0116 103.919 97.0116 103.919L101.463 104.545L105.914 103.919C105.914 103.919 104.24 109.821 105.091 114.193C105.942 118.556 106.684 119.747 106.684 119.747Z" fill="#75726D"/>
<path d="M107.192 101.25C107.192 103.597 104.627 105.499 101.463 105.499C98.2993 105.499 95.7343 103.597 95.7343 101.25C95.7343 98.9032 98.2993 97.0018 101.463 97.0018C104.627 97.0018 107.192 98.9032 107.192 101.25Z" fill="#54514C"/>
<path d="M109.234 98.301C109.234 101.405 105.755 103.921 101.463 103.921C97.1715 103.921 93.6922 101.405 93.6922 98.301C93.6922 95.1976 97.1715 92.682 101.463 92.682C105.755 92.682 109.234 95.1976 109.234 98.301Z" fill="#75726D"/>
<path d="M107.508 120.442V120.449C107.508 120.83 107.195 121.143 106.813 121.143H96.2429C95.8612 121.143 95.5482 120.83 95.5482 120.449V120.442C95.5482 120.061 95.8612 119.747 96.2429 119.747H106.813C107.195 119.747 107.508 120.061 107.508 120.442Z" fill="#BAB4A8"/>
<path d="M107.508 121.838V121.845C107.508 122.226 107.195 122.539 106.813 122.539H96.2429C95.8612 122.539 95.5482 122.226 95.5482 121.845V121.838C95.5482 121.457 95.8612 121.144 96.2429 121.144H106.813C107.195 121.144 107.508 121.457 107.508 121.838Z" fill="#54514C"/>
<path d="M109.321 130.545H93.7355C93.4889 130.545 93.253 130.413 93.1372 130.196C90.6409 125.502 96.2429 122.539 96.2429 122.539H106.813C106.813 122.539 112.415 125.502 109.918 130.196C109.803 130.413 109.567 130.545 109.321 130.545Z" fill="#75726D"/>
<path d="M109.844 131.948H93.2955V130.545H109.844V131.948Z" fill="#54514C"/>
<path d="M116.639 137.619H86.2965C85.8843 137.619 85.5496 137.285 85.5496 136.872V132.694C85.5496 132.282 85.8843 131.948 86.2965 131.948H116.639C117.051 131.948 117.386 132.282 117.386 132.694V136.872C117.386 137.285 117.051 137.619 116.639 137.619Z" fill="#75726D"/>
<path d="M29.7834 57.2449C29.7834 57.2449 29.0875 63.1396 33.0518 64.8281C37.0161 66.5158 40.0737 58.4381 40.0737 58.4381C40.0737 58.4381 41.335 55.7694 39.0174 53.7678C36.7005 51.7663 31.2933 51.9769 29.7834 57.2449Z" fill="#231547"/>
<path d="M33.0489 59.9135C33.0489 59.9135 32.6977 58.5089 31.8551 59.2814C31.0124 60.0539 31.3986 61.0371 32.171 61.5639C32.9436 62.0906 33.0136 62.1608 33.0489 62.6875C33.0839 63.2143 33.4449 67.6745 31.158 69.1845C28.8708 70.6951 31.227 74.347 34.3675 73.9256C37.5078 73.5043 40.0007 71.2569 40.0007 71.2569C40.0007 71.2569 38.9474 69.8875 38.2101 69.044C37.4728 68.2012 37.5078 66.5045 37.5078 66.5045C37.5078 66.5045 38.9474 66.4806 39.8251 64.0929C40.703 61.7043 40.0007 57.9822 40.0007 57.9822C40.0007 57.9822 39.0878 58.6493 37.4025 58.2279C35.7172 57.8066 34.4183 58.86 34.1723 59.2111C33.9266 59.5623 33.6456 61.0371 33.2946 60.8264C32.9436 60.6158 33.0489 59.9135 33.0489 59.9135Z" fill="#E54863"/>
<path d="M34.2032 65.0571C34.2032 65.0571 35.0421 66.8332 35.9374 67.6693C36.4822 68.1782 37.2015 68.2021 37.7022 67.9981C37.498 67.2494 37.5082 66.5045 37.5082 66.5045C37.5082 66.5045 35.6164 66.5695 34.9096 65.8133C34.2032 65.0571 34.2032 65.0571 34.2032 65.0571Z" fill="#AF2845"/>
<path d="M63.4394 82.2433L65.7541 89.7802C65.9028 90.2659 66.4443 90.5101 66.9067 90.301L76.2495 86.0775C76.6625 85.8908 76.8537 85.4111 76.6826 84.9912L71.1038 71.325C70.9237 70.8841 70.4151 70.6802 69.9803 70.8737L60.8311 74.956C60.3942 75.1509 60.2074 75.6702 60.4188 76.099L63.3894 82.1178L63.4394 82.2433Z" fill="white"/>
<path d="M51.3657 162.54C51.2946 163.294 46.396 163.61 45.8152 163.571C45.2265 163.533 45.0435 162.857 44.7558 162.625C44.467 162.386 44.1381 162.794 44.0468 163.439C43.9639 164.085 41.5002 163.876 40.6955 163.801C39.8993 163.726 39.9958 162.656 39.8269 161.089C39.6976 159.89 40.0869 159.255 40.3588 158.632C40.4403 158.445 40.5125 158.251 40.5577 158.042C40.7273 157.177 39.0126 150.156 39.1176 144.685C39.2145 139.216 39.8111 130.521 39.8111 130.521C39.9865 127.823 47.1496 128.467 47.1496 128.467C47.1496 128.467 46.5123 131.596 46.5873 132.291C46.6623 132.986 43.9756 156.411 43.9846 157.283L43.9867 157.299C44.0389 157.785 50.5703 160.506 51.2303 161.283C51.8987 162.058 51.4463 161.793 51.3657 162.54Z" fill="#E54863"/>
<path d="M51.3658 162.54C51.2946 163.294 46.396 163.61 45.8153 163.571C45.2265 163.533 45.0435 162.857 44.756 162.625C44.467 162.386 44.1382 162.794 44.0468 163.439C43.964 164.085 41.5003 163.876 40.6955 163.801C39.8993 163.726 39.9959 162.656 39.8269 161.089C39.6978 159.89 40.0869 159.255 40.3588 158.632C40.7609 158.826 41.1831 158.967 41.6073 158.972C43.3055 159.001 42.6005 157.728 43.1473 157.534C43.3188 157.473 43.6311 157.38 43.9846 157.282L43.9867 157.299C44.039 157.785 50.5704 160.506 51.2303 161.283C51.8987 162.058 51.4463 161.793 51.3658 162.54Z" fill="#231547"/>
<path d="M36.5402 163.229C36.3885 163.971 31.4844 163.76 30.9112 163.658C30.3298 163.558 30.2203 162.866 29.959 162.605C29.6978 162.335 29.3269 162.706 29.1667 163.338C29.0154 163.971 26.5884 163.498 25.7961 163.338C25.0124 163.178 25.2234 162.124 25.2234 160.548C25.2234 159.342 25.6783 158.752 26.0153 158.163C26.1165 157.986 26.2094 157.8 26.2768 157.598C26.5379 156.756 25.5859 149.591 26.2768 144.163C26.9592 138.735 28.4843 130.155 28.4843 130.155C28.948 127.492 36.0007 128.899 36.0007 128.899C36.0007 128.899 35.0318 131.941 35.0318 132.641C35.0318 133.341 29.8495 156.343 29.7652 157.211V157.226C29.7652 157.716 35.9671 161.121 36.5402 161.964C37.1213 162.807 36.7004 162.495 36.5402 163.229Z" fill="#E54863"/>
<path d="M36.5402 163.229C36.3885 163.971 31.4844 163.76 30.9112 163.658C30.3298 163.558 30.2203 162.866 29.959 162.605C29.6978 162.335 29.3269 162.706 29.1667 163.338C29.0154 163.971 26.5884 163.498 25.7961 163.338C25.0124 163.178 25.2234 162.124 25.2234 160.548C25.2234 159.342 25.6783 158.752 26.0153 158.163C26.3946 158.399 26.799 158.584 27.2204 158.634C28.9056 158.846 28.341 157.505 28.9056 157.37C29.0827 157.328 29.4028 157.269 29.7652 157.21V157.226C29.7652 157.716 35.9671 161.121 36.5402 161.964C37.1213 162.807 36.7004 162.495 36.5402 163.229Z" fill="#231547"/>
<path d="M48.1855 129.835C48.0762 131.201 45.7588 131.622 44.5959 132.043C43.4416 132.464 40.1805 132.261 39.2284 131.555C38.2761 130.847 37.8885 118.979 37.8885 118.979C37.8885 118.979 36.4895 131.099 35.7481 131.31C35.0149 131.521 29.007 131.73 27.6418 131.31C26.2768 130.888 26.7992 130.155 26.5801 128.891C26.3609 127.626 25.0126 114.032 25.215 112.034C25.4342 110.028 26.4706 102.864 26.4706 102.864C26.4706 102.864 34.0628 102.965 36.8014 102.864C39.5316 102.762 44.2169 102.299 44.2169 102.299C44.2169 102.299 47.7981 125.308 48.1605 129.304C48.1855 129.565 48.194 129.75 48.1855 129.835Z" fill="#41277A"/>
<path d="M48.1854 129.835C48.076 131.201 45.7588 131.622 44.5957 132.043C43.4416 132.464 40.1804 132.261 39.2284 131.555C38.276 130.847 37.8884 118.979 37.8884 118.979L38.6972 111.924H41.5961L39.7421 112.978C39.7421 112.978 40.1719 126.986 41.5961 128.781C42.4471 129.852 45.6914 129.641 48.1604 129.304C48.1854 129.565 48.1939 129.75 48.1854 129.835Z" fill="#231547"/>
<path d="M45.9695 79.1584C46.0558 79.2891 48.6027 85.6201 49.1994 85.6553C49.7964 85.6904 55.3441 83.8995 57.2048 83.5133C59.0654 83.127 61.0672 83.0217 61.4183 82.5652C61.7694 82.1087 61.9097 81.3003 62.7523 80.8088C63.5948 80.3172 64.8587 79.8255 64.8938 80.3172C64.9289 80.8087 63.4194 82.1789 63.4194 82.1789L64.297 85.5148C64.297 85.5148 62.1555 85.3393 61.9799 85.4445C61.8044 85.5499 55.9058 88.1835 52.9913 89.4484C50.0774 90.7125 48.4271 91.6606 46.8472 91.1339C45.2672 90.6071 43.7575 88.7185 42.6692 86.3269C41.5806 83.9346 41.0186 80.879 42.4583 79.6851C43.8979 78.4912 44.7405 77.2973 45.9695 79.1584Z" fill="#E54863"/>
<path d="M43.9302 81.514C43.9302 81.514 43.9302 99.9132 44.2168 102.299C44.4944 104.693 39.0851 104.061 36.6327 104.061C34.1721 104.061 27.2204 102.931 26.4705 102.864C26.0661 102.83 26.2849 100.495 26.5884 98.2195C26.841 96.2388 27.1529 94.3001 27.1529 93.946V93.4992C27.1529 91.207 27.1529 81.5812 27.1529 81.5812C27.1529 81.5812 25.8889 82.3567 25.3918 82.3567C25.3498 82.3567 25.2823 82.3485 25.2065 82.3231C24.4228 82.096 22.055 80.8146 21.5324 79.7523L21.4651 79.6178C21.0437 78.4209 25.0463 71.5347 25.8889 70.6247C26.5884 69.8574 30.0432 68.9048 31.1554 68.6098C31.3746 68.5508 31.5009 68.5171 31.5009 68.5171L36.4897 70.4813L39.0851 69.2172C39.0851 69.2172 43.2982 70.7674 43.8628 71.4674C44.4274 72.1668 47.3008 79.1202 47.3008 79.8956C47.3008 80.6712 43.9302 81.514 43.9302 81.514Z" fill="#99B746"/>
<path d="M33.049 71.6434C33.049 71.6434 33.9661 72.6267 34.3676 72.3809C34.7695 72.1351 35.7526 70.8357 35.8932 70.7655C36.0336 70.6952 36.5253 70.7655 36.5253 70.7655C36.5253 70.7655 37.1573 70.4494 37.2977 70.4494C37.4384 70.4494 37.7541 71.683 38.0704 71.435C38.3861 71.1869 39.4749 69.3249 39.3346 69.0088C39.1939 68.6927 38.3512 67.8499 38.1055 68.0957C37.8595 68.3415 36.5253 70.2357 36.5253 70.2357C36.5253 70.2357 31.8199 67.9724 31.6442 68.0516C31.4689 68.1308 31.1578 68.6068 31.1578 68.6068C31.1578 68.6068 32.311 71.024 33.049 71.6434Z" fill="white"/>
<path d="M27.15 87.535V81.5835C27.1521 81.582 27.1529 81.5813 27.1529 81.5813C27.1529 81.5813 27.1529 84.5163 27.1529 87.5312L27.15 87.535Z" fill="#7F9D8B"/>
<path d="M27.1529 87.5308C27.1529 84.5161 27.1529 81.5815 27.1529 81.5815C27.1529 81.5815 27.1521 81.5823 27.15 81.5838V81.5815C27.15 81.5815 28.695 79.5449 29.2217 77.6135C29.2217 77.6135 29.713 84.1053 27.1529 87.5308Z" fill="#5A8349"/>
<path d="M43.9331 81.5118L43.2836 76.3142L45.4456 81.0552L43.9331 81.5118Z" fill="#5A8349"/>
<path d="M84.0738 120.917L72.5971 120.176L5.7923 87.9498L3.15463 86.6767L2.37937 86.298C0.97221 85.615 0.154907 84.2239 0.154907 82.7746C0.154907 82.1932 0.281289 81.603 0.559301 81.0465C1.52831 79.0995 3.91299 78.2993 5.87663 79.2683L6.80328 79.7233L9.20485 80.912L75.1501 113.433L84.0738 120.917Z" fill="#231547"/>
<path d="M9.20547 80.9119L5.79252 87.9506L3.15454 86.6773L6.80362 79.7231L9.20547 80.9119Z" fill="#FFAF5F"/>
<path d="M3.15452 86.6765C3.15452 86.6765 0.491827 86.4516 2.17707 88.2783C3.86239 90.1043 5.8949 91.594 14.5845 94.965C23.2745 98.3367 25.3941 98.0043 24.0447 96.59C22.6952 95.1757 3.15452 86.6765 3.15452 86.6765Z" fill="#FFAF5F"/>
<path d="M84.0737 120.917L72.597 120.176C72.597 120.176 71.2569 115.784 75.15 113.433L84.0737 120.917Z" fill="#75726D"/>
<path d="M35.0656 102.181C35.2255 102.653 31.3831 101.6 30.4308 101.279C29.4871 100.967 29.6979 100.124 27.153 98.5984C26.9762 98.4893 26.7822 98.3631 26.5884 98.2197C24.0269 96.3227 20.3529 91.6286 20.0244 91.3843C19.6702 91.1146 19.114 90.1702 18.7436 89.6391C18.3727 89.1168 18.0019 88.7963 18.1115 87.5321C18.1873 86.5295 20.5467 81.7248 21.5325 79.7524C22.0551 80.8148 24.4229 82.0962 25.2066 82.3232C24.7179 83.5374 23.3526 86.9756 23.2178 87.5321C23.0577 88.215 23.5887 88.6954 24.9536 90.3219C25.4762 90.9457 26.285 92.1763 27.153 93.4994C28.5517 95.6317 30.1191 98.0344 30.9618 98.6492C32.327 99.6526 32.0151 99.5936 32.3775 100.335C32.7483 101.076 34.9055 101.7 35.0656 102.181Z" fill="#E54863"/>
<path d="M147.908 158.519C147.908 158.519 148.189 160.291 148.576 160.994C148.963 161.697 148.986 164.077 148.907 164.349C148.828 164.622 145.53 166.059 144.939 165.43C144.347 164.8 144.253 164.386 143.912 164.684C143.571 164.982 143.389 165.814 142.654 165.876C141.92 165.939 137.014 166.635 136.668 165.824C136.323 165.011 136.125 164.077 136.818 163.585C137.51 163.093 141.679 162.623 142.484 161.384C143.289 160.146 143.056 159.681 143.224 159.635C143.392 159.59 147.24 156.044 147.908 158.519Z" fill="#231547"/>
<path d="M130.369 159.07C130.369 159.07 130.474 160.862 130.79 161.6C131.106 162.337 130.896 164.708 130.79 164.971C130.685 165.235 127.262 166.34 126.735 165.656C126.209 164.971 126.156 164.55 125.788 164.813C125.419 165.076 125.156 165.885 124.419 165.876C123.68 165.866 118.73 166.076 118.466 165.235C118.203 164.392 118.098 163.443 118.835 163.022C119.573 162.6 123.767 162.542 124.69 161.389C125.613 160.235 125.426 159.75 125.597 159.721C125.77 159.692 129.948 156.543 130.369 159.07Z" fill="#231547"/>
<path d="M145.638 159.856C144.483 160.498 142.689 159.756 142.066 159.233C141.425 158.702 134.903 134.049 134.373 132.885C133.841 131.73 133.109 123.513 133.109 123.513C133.109 123.513 131.844 128.36 131.735 128.992C131.633 129.624 131.111 158.811 130.891 159.756C130.69 160.699 128.785 160.809 127.942 160.809C127.167 160.809 125.591 160.27 124.69 159.865C124.614 159.823 124.538 159.789 124.471 159.756C123.628 159.334 123.207 125.831 123.207 125.519C123.207 125.198 125.735 99.8124 125.735 99.8124C125.735 99.8124 142.066 94.8568 143.245 100.604C144.433 106.344 142.377 128.781 142.563 129.514C142.74 130.256 148.166 155.331 148.386 157.648C148.587 159.966 146.801 159.233 145.638 159.856Z" fill="#41277A"/>
<path d="M128.895 60.9848C128.895 60.9848 125.999 59.8254 126.946 57.2972C127.894 54.7689 129.843 56.6121 129.843 56.6121C129.843 56.6121 135.709 55.0318 137.7 56.5067C139.691 57.9822 138.795 60.1944 138.795 60.1944C138.795 60.1944 140.428 62.0383 139.639 64.7772C138.848 67.5169 135.319 68.149 135.319 68.149L128.895 60.9848Z" fill="#231547"/>
<path d="M128.895 60.9849C128.895 60.9849 128.277 65.4092 129.27 67.5169C130.264 69.6237 131.265 69.5715 131.265 69.5715C131.265 69.5715 130.811 73.2024 129.984 73.6515C129.157 74.1012 130.685 77.4729 132.897 78.2626C135.11 79.053 137.374 78.1849 138.058 76.2223C138.743 74.2596 138.374 73.6515 138.374 73.6515C138.374 73.6515 136.829 73.3287 136.531 72.205C136.232 71.0814 135.846 67.7276 135.846 67.7276C135.846 67.7276 137.869 65.936 137.7 64.6195C137.531 63.3024 136.952 63.8821 136.689 64.1982C136.426 64.5143 136.004 65.1463 135.688 64.8825C135.373 64.6195 135.53 64.2505 135.53 63.4608C135.53 62.6704 135.162 61.7746 134.478 61.3008C133.793 60.8265 129.789 61.8276 128.895 60.9849Z" fill="#FFB2A8"/>
<path d="M144.812 82.1797C144.163 87.3468 142.967 93.9207 143.009 95.0675C143.077 96.8964 143.784 100.192 143.009 101.11C142.403 101.818 135.551 103.167 131.212 103.201C129.981 103.209 128.953 103.108 128.33 102.864C125.524 101.742 125.103 101.667 125.103 100.545C125.103 100.216 125.162 99.0877 125.238 97.6629C125.347 95.5897 125.508 92.8926 125.626 91.1145V91.1055C125.65 90.6588 125.676 90.2717 125.693 89.9677C125.727 89.5044 125.735 89.2347 125.735 89.2347L123.695 92.6819L118.217 89.2347C118.217 89.2347 118.715 88.0633 119.448 86.3688C121.294 82.0707 124.665 74.3918 125.313 73.7852C126.224 72.9424 130.436 71.4675 130.436 71.4675L133.251 75.26L136.267 71.4675C136.267 71.4675 144.012 74.1811 145.022 75.8756C145.394 76.5076 145.199 79.0948 144.812 82.1797Z" fill="#FC4254"/>
<path d="M131.212 103.201L131.422 100.334L125.238 97.6628C125.347 95.5896 125.508 92.8925 125.626 91.1143V91.1054L130.226 89.7994L135.072 91.2825C135.072 91.2825 139.495 88.8132 140.153 87.9705C140.81 87.1278 140.608 82.2811 140.608 82.2811C140.619 81.3405 141.032 80.9446 141.72 80.9446C142.474 80.9446 143.561 81.4212 144.812 82.1795C144.805 82.2341 144.798 82.2886 144.791 82.3432C144.319 86.0534 143.579 90.4434 143.219 93.027C143.215 93.0524 143.212 93.0777 143.209 93.1031C143.162 93.4438 143.121 93.7517 143.089 94.0206C143.038 94.4584 143.008 94.7939 143.008 95.0015C143.008 95.0247 143.008 95.0471 143.009 95.0673C143.053 96.2605 143.37 98.0775 143.369 99.4514C143.369 100.184 143.279 100.791 143.009 101.11C142.403 101.818 135.551 103.167 131.212 103.201Z" fill="#CA2043"/>
<path d="M123.695 92.6821L118.217 89.2349C118.217 89.2349 118.715 88.0634 119.448 86.3689C120.961 86.6222 123.443 87.0078 124.416 87.0078C124.673 87.0078 124.825 86.9801 124.825 86.9166C124.825 86.4952 125.17 80.5952 125.17 80.5952L125.735 89.2349L123.695 92.6821Z" fill="#CA2043"/>
<path d="M93.3262 78.8626L98.7901 84.6161C98.8692 84.6991 98.9648 84.7656 99.0709 84.8104L132.494 99.0504C132.816 99.1864 133.018 99.501 133.007 99.8498C132.954 101.38 133.025 105.641 135.214 108.096C137.471 110.626 143.883 112.287 145.944 112.767C146.324 112.855 146.71 112.672 146.885 112.324L155.098 95.991C155.292 95.604 155.166 95.1363 154.801 94.9032C152.746 93.592 146.236 89.5665 143.009 89.0974C139.973 88.655 137.587 91.3394 136.706 92.5072C136.476 92.812 136.067 92.9173 135.715 92.7709L131.464 90.9988C131.344 90.9487 131.216 90.9278 131.086 90.9353L126.137 91.246C125.807 91.2669 125.495 91.0929 125.34 90.8008L124.056 88.3816C123.921 88.1276 123.665 87.9595 123.378 87.9371L118.866 87.5807C118.634 87.5621 118.419 87.4485 118.274 87.2654L115.192 83.3961C115.022 83.1832 114.759 83.0652 114.487 83.0801L110.194 83.3125C109.902 83.3282 109.622 83.1914 109.457 82.9508L107.599 80.2732C107.435 80.0378 107.164 79.9019 106.878 79.9116L103.527 80.0251C103.313 80.0326 103.104 79.9579 102.943 79.8167L99.4937 76.7893C99.3024 76.622 99.0455 76.5496 98.7953 76.5928L93.7944 77.4514C93.1304 77.5656 92.8623 78.374 93.3262 78.8626Z" fill="#FFAF5F"/>
<path d="M143.501 108.588C143.501 108.588 143.15 111.573 143.15 111.994C143.15 112.416 142.693 112.837 142.167 112.907C141.64 112.978 137.883 111.889 137.742 110.748C137.602 109.606 138.234 109.676 138.725 109.325C139.217 108.974 140.611 108.096 140.611 108.096L143.501 108.588Z" fill="#ED827A"/>
<path d="M141.008 105.392C141.008 105.392 139.83 107.816 140.156 108.238C140.481 108.659 143.712 110.134 144.063 109.607C144.414 109.08 145.116 107.5 145.011 107.043C144.905 106.586 141.535 104.83 141.008 105.392Z" fill="white"/>
<path d="M143.746 74.6885C143.746 74.6885 137.672 75.4707 141.324 83.1974C144.974 90.9233 145.466 92.2576 145.326 92.9599C145.185 93.6621 139.92 105.252 140.481 105.954C141.043 106.657 145.016 108.412 145.346 107.71C145.677 107.007 150.663 95.6293 151.295 93.4515C151.927 91.2744 145.958 74.9589 143.746 74.6885Z" fill="#FC4254"/>
<path d="M122.841 94.9376C122.841 94.9376 120.205 98.2279 118.782 97.4905C117.361 96.7531 101.771 88.7462 101.718 87.7974C101.666 86.8493 102.239 86.1604 102.239 86.1604L122.841 94.9376Z" fill="#FC4254"/>
<path d="M101.716 87.4292C101.716 87.4292 100.982 87.4815 100.719 86.9548C100.455 86.428 100.719 85.5127 100.719 85.5127L102.24 86.1605L101.716 87.4292Z" fill="white"/>
<path d="M100.602 86.4718C100.602 86.4718 97.2425 85.1112 96.8211 83.9C96.3998 82.688 97.3478 81.6344 98.1904 81.7921C99.0338 81.9505 99.8765 82.7411 100.087 83.3201C100.298 83.9 100.719 85.5132 100.719 85.5132L100.602 86.4718Z" fill="#ED827A"/>
<path d="M129.27 71.8967C129.27 71.8967 129.983 73.1535 130.299 74.0666C130.615 74.9797 130.72 76.1042 131.036 75.8935C131.352 75.682 133.251 75.2606 133.251 75.2606C133.251 75.2606 134.267 76.5607 134.653 76.1393C135.04 75.7172 137.857 72.3809 137.695 71.9946C137.533 71.6083 136.409 71.0815 136.233 71.0815C136.058 71.0815 133.144 74.689 133.144 74.689C133.144 74.689 131.107 71.5732 130.755 71.2922C130.404 71.0113 129.295 71.5179 129.27 71.8967Z" fill="white"/>
<path d="M131.265 69.5717C131.265 69.5717 133.371 69.308 134.003 68.4121C134.003 68.4121 133.687 70.7471 131.012 71.0818L131.265 69.5717Z" fill="#ED827A"/>
<path d="M133.108 123.513C133.108 123.513 131.844 128.36 131.735 128.992C131.633 129.624 131.111 158.811 130.891 159.756C130.69 160.699 128.785 160.809 127.942 160.809C127.167 160.809 125.592 160.27 124.69 159.865C126.595 159.578 128.582 159.199 128.582 158.811C128.582 158.07 129.847 129.734 130.049 128.47C130.268 127.205 131.718 123.193 131.718 123.193V111.924L133.108 123.513Z" fill="#231547"/>
<path d="M235.137 166.592C235.137 166.592 228.687 161.654 228.989 159.435C229.291 157.218 233.625 159.939 233.625 159.939C233.625 159.939 230.39 154.9 232.058 153.186C233.726 151.472 236.648 157.118 236.648 157.118C236.648 157.118 237.052 153.085 239.268 154.295C241.486 155.504 243.199 164.174 243.199 164.174L245.231 163.847C245.231 163.847 246.814 154.57 249.031 154.166C251.249 153.763 250.052 157.823 250.052 157.823C250.052 157.823 255.191 151.933 257.106 152.862C259.021 153.791 252.873 161.955 252.873 161.955C252.873 161.955 255.292 159.839 256.199 161.351C257.106 162.863 251.865 166.592 251.865 166.592H235.137Z" fill="#99B746"/>
<path d="M246.624 128.385V166.592H240.175V128.385H246.624Z" fill="#75726D"/>
<path d="M246.625 128.385V135.289L240.175 134.837V128.385H246.625Z" fill="#54514C"/>
<path d="M222.035 109.792V129.652C222.035 130.521 222.725 131.235 223.594 131.263L262.695 132.566C263.606 132.597 264.361 131.866 264.361 130.956V108.582C264.361 107.671 263.609 106.941 262.699 106.969L223.598 108.181C222.727 108.207 222.035 108.921 222.035 109.792Z" fill="#F98D43"/>
<path d="M261.343 109.806H261.335L225.047 110.93C224.924 110.933 224.827 111.033 224.827 111.157V128.291C224.827 128.414 224.923 128.514 225.046 128.517L261.335 129.727L261.5 129.665L261.57 129.501V110.033L261.501 109.869L261.343 109.806ZM261.345 130.475L261.31 130.474L225.022 129.264C224.494 129.248 224.08 128.82 224.08 128.291V111.157C224.08 110.627 224.494 110.2 225.024 110.182L261.313 109.059C261.58 109.061 261.83 109.149 262.021 109.334C262.212 109.519 262.317 109.768 262.317 110.033V129.501C262.317 129.767 262.211 130.016 262.02 130.201C261.836 130.379 261.598 130.475 261.345 130.475Z" fill="white"/>
<path d="M233.003 119.133C232.735 118.864 232.442 118.65 232.126 118.492C231.81 118.333 231.49 118.201 231.171 118.097C230.851 117.993 230.558 117.891 230.295 117.793C230.031 117.695 229.815 117.567 229.65 117.41C229.485 117.254 229.401 117.036 229.401 116.756C229.401 116.569 229.443 116.393 229.525 116.228C229.608 116.063 229.745 115.925 229.932 115.817C230.12 115.709 230.369 115.652 230.679 115.646C231.025 115.64 231.385 115.71 231.754 115.858C232.122 116.005 232.496 116.243 232.872 116.571C233.144 115.526 233.28 115.002 233.551 113.95C233.167 113.59 232.724 113.327 232.223 113.158C231.721 112.989 231.211 112.913 230.691 112.928C229.914 112.953 229.265 113.155 228.745 113.531C228.226 113.906 227.838 114.393 227.583 114.989C227.326 115.584 227.198 116.239 227.198 116.955C227.198 117.603 227.278 118.139 227.441 118.567C227.603 118.995 227.815 119.343 228.079 119.611C228.342 119.878 228.637 120.095 228.961 120.26C229.284 120.425 229.603 120.56 229.916 120.662C230.227 120.763 230.518 120.872 230.786 120.986C231.054 121.101 231.272 121.238 231.437 121.399C231.602 121.56 231.685 121.779 231.685 122.05C231.685 122.262 231.642 122.446 231.556 122.598C231.469 122.749 231.332 122.865 231.148 122.944C230.964 123.023 230.712 123.06 230.396 123.053C229.937 123.044 229.475 122.92 229.011 122.684C228.547 122.448 228.14 122.154 227.786 121.802C227.491 122.82 227.344 123.328 227.051 124.338C227.42 124.728 227.904 125.059 228.503 125.328C229.102 125.597 229.729 125.744 230.385 125.765C231.169 125.792 231.822 125.631 232.342 125.279C232.862 124.927 233.251 124.447 233.511 123.838C233.771 123.232 233.902 122.561 233.902 121.831C233.902 121.174 233.818 120.626 233.653 120.189C233.487 119.753 233.269 119.4 233.003 119.133Z" fill="white"/>
<path d="M238.223 120.624C238.545 119.333 238.861 118.052 239.237 116.526C239.614 118.04 239.931 119.325 240.254 120.639C239.513 120.634 238.923 120.629 238.223 120.624ZM238.151 112.996C236.754 118.146 236.056 120.68 234.658 125.656C235.572 125.686 236.028 125.7 236.942 125.73C237.169 124.825 237.372 124.016 237.563 123.257C238.761 123.281 239.653 123.299 240.911 123.324C241.102 124.104 241.305 124.94 241.532 125.877C242.463 125.907 242.93 125.922 243.861 125.952C242.459 120.657 241.758 118.052 240.356 112.931C239.474 112.957 239.033 112.97 238.151 112.996Z" fill="white"/>
<path d="M247.296 112.759C246.401 112.786 245.953 112.799 245.058 112.825C245.058 118.091 245.058 120.725 245.058 125.99C247.459 126.067 248.66 126.106 251.062 126.183C251.062 124.969 251.062 124.362 251.062 123.148C249.556 123.121 248.803 123.107 247.296 123.08C247.296 118.951 247.296 116.886 247.296 112.759Z" fill="white"/>
<path d="M254.906 123.286C254.906 122.33 254.906 121.529 254.906 120.777C256.268 120.786 257.008 120.792 258.422 120.802C258.422 119.631 258.422 119.044 258.422 117.872C257.008 117.881 256.268 117.885 254.906 117.893C254.906 117.202 254.906 116.464 254.906 115.599C256.503 115.573 257.3 115.561 258.897 115.534C258.897 114.305 258.897 113.691 258.897 112.46C256.418 112.534 255.179 112.571 252.701 112.644C252.701 118.08 252.701 120.8 252.701 126.236C255.238 126.317 256.506 126.358 259.044 126.44C259.044 125.209 259.044 124.594 259.044 123.363C257.389 123.333 256.561 123.317 254.906 123.286Z" fill="white"/>
<path d="M228.978 167.296H260.466C260.466 167.296 242.58 154.915 228.978 167.296Z" fill="#E5E3E1"/>
<path d="M230.614 29.6559H267.179C270.806 19.7394 260.665 21.6199 257.442 24.1728C257.173 11.4098 246.629 15.1043 240.183 22.964C236.759 20.1421 232.797 24.4582 230.614 29.6559Z" fill="#F2F1F0"/>
<path d="M130.214 37.9363H177.89C183.235 30.6527 172.203 30.4719 167.243 33.1182C169.309 25.1576 159.566 21.0679 151.342 28.48C149.889 24.2626 140.899 27.0217 140.098 33.1182C137.382 30.0132 130.214 37.9363 130.214 37.9363Z" fill="#F2F1F0"/>
<path d="M189.003 11.3891H213.862C219.399 2.78532 205.685 -0.282336 199.467 8.3222C199.467 4.99977 191.486 7.21497 189.003 11.3891Z" fill="#F2F1F0"/>
<path d="M182.341 152.763H196.99C194.775 147.283 186.939 146.572 182.341 152.763Z" fill="#E5E3E1"/>
<path d="M289.489 161.794H303.373C305.672 156.399 293.066 155.433 289.489 161.794Z" fill="#E5E3E1"/>
<path d="M267.174 153.246H273.697C271.859 150.009 268.366 149.838 267.174 153.246Z" fill="#E5E3E1"/>
</g>
</g>
</g>
<defs>
<clipPath id="clip0_24_953">
<rect width="329.98" height="169.98" fill="white"/>
</clipPath>
<clipPath id="clip1_24_953">
<rect width="329.98" height="169.98" fill="white"/>
</clipPath>
<clipPath id="clip2_24_953">
<rect width="329.961" height="169.98" fill="white" transform="translate(0.00939941)"/>
</clipPath>
</defs>
</svg>
