<svg width="151" height="151" viewBox="0 0 151 151" fill="none" xmlns="http://www.w3.org/2000/svg">
<g clip-path="url(#clip0_24_572)">
<path d="M45.4401 74.2656H28.2178C27.3305 74.2656 26.6106 74.9855 26.6106 75.8727V93.3944C26.6106 94.2816 27.3305 95.0015 28.2178 95.0015C29.105 95.0015 29.8249 94.2816 29.8249 93.3944V77.4799H45.4401C46.3274 77.4799 47.0473 76.76 47.0473 75.8727C47.0473 74.9855 46.3274 74.2656 45.4401 74.2656Z" fill="#EB6753"/>
<path d="M28.2178 98.5361C27.3305 98.5361 26.6106 99.2559 26.6106 100.143V102.322C26.6106 103.209 27.3305 103.929 28.2178 103.929C29.105 103.929 29.8249 103.209 29.8249 102.322V100.143C29.8249 99.2559 29.105 98.5361 28.2178 98.5361Z" fill="#EB6753"/>
<path d="M101.657 22.1486C101.071 22.8162 101.138 23.8332 101.803 24.417L125.339 45.0671C126.005 45.6511 127.02 45.5891 127.607 44.9206C128.193 44.2531 128.126 43.2362 127.461 42.6523L103.925 22.0021C103.258 21.4162 102.245 21.479 101.657 22.1486Z" fill="#EB6753"/>
<path d="M95.5797 16.8207C94.9958 17.4882 95.0628 18.5032 95.7304 19.0891L96.7118 19.9492C97.3899 20.539 98.3997 20.4593 98.9802 19.7985C99.5641 19.131 99.4971 18.116 98.8295 17.5301L97.8481 16.67C97.1806 16.0883 96.1656 16.151 95.5797 16.8207Z" fill="#EB6753"/>
<path d="M72.0292 30.488C64.9578 30.488 59.2149 36.2523 59.2149 43.3237C59.2149 50.3738 64.9578 56.1166 72.0292 56.1166C79.0791 56.1166 84.822 50.3738 84.822 43.3237C84.822 36.2523 79.0791 30.488 72.0292 30.488ZM72.0292 52.9023C66.7364 52.9023 62.4292 48.5952 62.4292 43.3237C62.4292 38.0094 66.7364 33.7023 72.0292 33.7023C77.3006 33.7023 81.6077 38.0094 81.6077 43.3237C81.6077 48.5952 77.3006 52.9023 72.0292 52.9023Z" fill="#181A20"/>
<path d="M53.0863 114.617C53.0863 115.517 52.3578 116.224 51.4791 116.224H49.2291C48.3292 116.224 47.622 115.517 47.622 114.617C47.622 113.738 48.3292 113.01 49.2291 113.01H51.4791C52.3578 113.01 53.0863 113.738 53.0863 114.617Z" fill="#181A20"/>
<path d="M114.633 97.4666H99.0053C98.118 97.4666 97.3982 98.1865 97.3982 99.0738C97.3982 99.961 98.118 100.681 99.0053 100.681H114.633C115.52 100.681 116.24 99.961 116.24 99.0738C116.24 98.1865 115.52 97.4666 114.633 97.4666Z" fill="#EB6753"/>
<path d="M93.4703 97.4666H93.1501C92.2629 97.4666 91.543 98.1865 91.543 99.0738C91.543 99.961 92.2629 100.681 93.1501 100.681H93.4703C94.3576 100.681 95.0774 99.961 95.0774 99.0738C95.0774 98.1865 94.3576 97.4666 93.4703 97.4666Z" fill="#EB6753"/>
<path d="M140.301 106.002H125.965V68.931H131.043C135.715 68.931 137.879 63.1453 134.386 60.081L75.3291 8.2667C73.4221 6.59534 70.572 6.59534 68.6649 8.2667L43.7649 30.1454V23.4811H46.122C47.5578 23.4811 48.7149 22.3239 48.7149 20.9096V13.1311C48.7149 11.7167 47.5578 10.5596 46.122 10.5596H20.1505C18.7149 10.5596 17.5578 11.7167 17.5578 13.1311V20.9096C17.5578 22.3239 18.7149 23.4811 20.1505 23.4811H22.5292V48.7882L9.65063 60.081C6.15775 63.1667 8.34351 68.931 12.9935 68.931H18.0721V140.953H12.4363C11.5578 140.953 10.8292 141.66 10.8292 142.56C10.8292 143.438 11.5578 144.167 12.4363 144.167H12.5649H140.301C142.358 144.167 144.029 142.474 144.029 140.417V109.731C144.029 107.674 142.358 106.002 140.301 106.002ZM20.7721 20.2668V13.7739H45.5006V20.2668H20.7721ZM40.5506 23.4811V32.9525L25.7435 45.9596V23.4811H40.5506ZM12.9935 65.7167C11.3005 65.7167 10.5077 63.6168 11.772 62.5024L70.7863 10.6882C71.472 10.0882 72.522 10.0882 73.2077 10.6882L132.265 62.5024C133.529 63.6168 132.758 65.7167 131.043 65.7167H12.9935ZM39.0291 90.8525V140.953H21.2863V68.931H122.751V106.002H79.2506V90.8525C79.2506 87.681 76.6577 85.0882 73.4863 85.0882H44.8149C41.622 85.0882 39.0291 87.681 39.0291 90.8525ZM76.0363 106.045C74.2364 106.302 72.822 107.91 72.822 109.731C72.8435 122.481 72.7791 140.31 72.8649 140.953H42.2434V90.8525C42.2434 89.4596 43.4006 88.3025 44.8148 88.3025H73.4863C74.8792 88.3025 76.0363 89.4596 76.0363 90.8525V106.045ZM140.815 140.417C140.815 140.717 140.579 140.953 140.301 140.953H76.5505C76.4005 140.953 76.0577 140.717 76.0577 140.438V109.731C76.0577 109.453 76.3363 109.217 76.5505 109.217C77.7935 109.238 123.093 109.217 140.301 109.217C140.579 109.217 140.815 109.453 140.815 109.731V140.417Z" fill="#181A20"/>
<path d="M73.4863 88.3022H44.8149C43.4007 88.3022 42.2434 89.4593 42.2434 90.8522V140.953H72.8649C72.7791 140.31 72.8435 122.481 72.822 109.731C72.822 107.91 74.2364 106.302 76.0363 106.045V90.8522C76.0363 89.4593 74.8792 88.3022 73.4863 88.3022ZM51.4791 116.224H49.2291C48.3292 116.224 47.622 115.517 47.622 114.617C47.622 113.738 48.3292 113.01 49.2291 113.01H51.4791C52.3578 113.01 53.0863 113.738 53.0863 114.617C53.0863 115.517 52.3578 116.224 51.4791 116.224Z" fill="url(#paint0_linear_24_572)"/>
<path d="M20.7714 13.7727H45.5V20.2655H20.7714V13.7727Z" fill="url(#paint1_linear_24_572)"/>
<path d="M40.5506 23.481V32.9524L25.7435 45.9596V23.481H40.5506Z" fill="url(#paint2_linear_24_572)"/>
<path d="M81.6077 43.3235C81.6077 48.595 77.3006 52.9022 72.0291 52.9022C66.7363 52.9022 62.4292 48.595 62.4292 43.3235C62.4292 38.0093 66.7363 33.7021 72.0291 33.7021C77.3006 33.7021 81.6077 38.0093 81.6077 43.3235Z" fill="#DDDDDD"/>
<path d="M89.322 119.395C86.1934 119.395 83.6434 121.945 83.6434 125.074C83.6434 128.224 86.1934 130.774 89.322 130.774C92.472 130.774 95.0005 128.224 95.0005 125.074C95.0005 121.945 92.472 119.395 89.322 119.395ZM89.322 127.56C87.972 127.56 86.8577 126.445 86.8577 125.074C86.8577 123.724 87.972 122.61 89.322 122.61C90.6935 122.61 91.7862 123.724 91.7862 125.074C91.7862 126.445 90.6935 127.56 89.322 127.56Z" fill="#181A20"/>
<path d="M91.7862 125.074C91.7862 126.445 90.6935 127.56 89.322 127.56C87.972 127.56 86.8577 126.445 86.8577 125.074C86.8577 123.724 87.972 122.61 89.322 122.61C90.6935 122.61 91.7862 123.724 91.7862 125.074Z" fill="#DDDDDD"/>
<path d="M127.529 119.395C124.401 119.395 121.851 121.945 121.851 125.074C121.851 128.224 124.401 130.774 127.529 130.774C130.658 130.774 133.208 128.224 133.208 125.074C133.208 121.945 130.658 119.395 127.529 119.395ZM127.529 127.56C126.158 127.56 125.065 126.445 125.065 125.074C125.065 123.724 126.158 122.61 127.529 122.61C128.901 122.61 129.993 123.724 129.993 125.074C129.993 126.445 128.901 127.56 127.529 127.56Z" fill="#181A20"/>
<path d="M129.993 125.074C129.993 126.445 128.901 127.56 127.529 127.56C126.158 127.56 125.065 126.445 125.065 125.074C125.065 123.724 126.158 122.61 127.529 122.61C128.901 122.61 129.993 123.724 129.993 125.074Z" fill="#DDDDDD"/>
<path d="M108.428 117.631C110.04 117.631 111.352 118.941 111.352 120.553C111.352 121.44 112.072 122.16 112.959 122.16C113.846 122.16 114.566 121.44 114.566 120.553C114.566 117.729 112.637 115.369 110.036 114.658V113.465C110.036 112.578 109.316 111.858 108.428 111.858C107.541 111.858 106.821 112.578 106.821 113.465V114.658C104.22 115.369 102.291 117.729 102.291 120.553C102.291 123.937 105.045 126.69 108.428 126.69C110.04 126.69 111.352 128.002 111.352 129.614C111.352 131.225 110.04 132.535 108.428 132.535C106.817 132.535 105.505 131.225 105.505 129.614C105.505 128.727 104.785 128.007 103.898 128.007C103.011 128.007 102.291 128.727 102.291 129.614C102.291 132.438 104.22 134.798 106.821 135.509V136.702C106.821 137.589 107.541 138.309 108.428 138.309C109.316 138.309 110.036 137.589 110.036 136.702V135.509C112.637 134.798 114.566 132.438 114.566 129.614C114.566 126.23 111.812 123.476 108.428 123.476C106.817 123.476 105.505 122.164 105.505 120.553C105.505 118.941 106.817 117.631 108.428 117.631Z" fill="#181A20"/>
</g>
<defs>
<linearGradient id="paint0_linear_24_572" x1="59.1399" y1="88.3022" x2="59.1399" y2="140.953" gradientUnits="userSpaceOnUse">
<stop stop-color="#DDDDDD" stop-opacity="0"/>
<stop offset="1" stop-color="#DDDDDD"/>
</linearGradient>
<linearGradient id="paint1_linear_24_572" x1="33.1357" y1="13.7727" x2="33.1357" y2="20.2655" gradientUnits="userSpaceOnUse">
<stop stop-color="#DDDDDD" stop-opacity="0"/>
<stop offset="1" stop-color="#DDDDDD"/>
</linearGradient>
<linearGradient id="paint2_linear_24_572" x1="33.147" y1="23.481" x2="33.147" y2="45.9596" gradientUnits="userSpaceOnUse">
<stop stop-color="#DDDDDD" stop-opacity="0"/>
<stop offset="1" stop-color="#DDDDDD"/>
</linearGradient>
<clipPath id="clip0_24_572">
<rect width="150" height="150" fill="white" transform="translate(0.980011 0.589844)"/>
</clipPath>
</defs>
</svg>
