<svg width="150" height="151" viewBox="0 0 150 151" fill="none" xmlns="http://www.w3.org/2000/svg">
<g clip-path="url(#clip0_24_629)">
<g clip-path="url(#clip1_24_629)">
<path d="M9.57404 96.3251C10.4613 96.3251 11.1812 95.6053 11.1812 94.718V94.0002C11.1812 93.1129 10.4613 92.3931 9.57404 92.3931C8.68677 92.3931 7.9669 93.1129 7.9669 94.0002V94.718C7.9669 95.6053 8.68677 96.3251 9.57404 96.3251Z" fill="#EB6753"/>
<path d="M7.9669 123.582C7.9669 124.469 8.68677 125.189 9.57404 125.189C10.4613 125.189 11.1812 124.469 11.1812 123.582V100.299C11.1812 99.4118 10.4613 98.6919 9.57404 98.6919C8.68677 98.6919 7.9669 99.4118 7.9669 100.299V123.582Z" fill="#EB6753"/>
<path d="M103.592 26.8308C102.924 26.2449 101.911 26.3098 101.323 26.9773C100.738 27.6449 100.804 28.6598 101.47 29.2457L120.061 45.5599C120.727 46.1439 121.742 46.0819 122.329 45.4134C122.915 44.7459 122.848 43.7309 122.183 43.145L103.592 26.8308Z" fill="#EB6753"/>
<path d="M97.111 21.145C96.4435 20.5632 95.4306 20.6281 94.8425 21.2956C94.2587 21.9632 94.3257 22.9781 94.9933 23.564L96.1463 24.5748C96.8244 25.1646 97.8342 25.0849 98.4147 24.4241C98.9986 23.7566 98.9316 22.7416 98.2641 22.1557L97.111 21.145Z" fill="#EB6753"/>
<path d="M121.827 87.8354V83.0354H123.691C124.569 83.0354 125.298 82.3283 125.298 81.4283C125.298 80.5497 124.569 79.8212 123.691 79.8212H120.798V68.6997H125.662C130.205 68.6997 132.348 63.064 128.919 60.0639L71.7479 9.89967C69.905 8.27107 67.0979 8.27107 65.2336 9.89967L41.2122 30.9854V24.7068H43.4623C44.855 24.7068 45.9908 23.5712 45.9908 22.1568V14.6353C45.9908 13.2211 44.855 12.0853 43.4623 12.0853H18.2837C16.8908 12.0853 15.7552 13.2211 15.7552 14.6353V22.1568C15.7552 23.5711 16.8908 24.7068 18.2837 24.7068H20.5551V49.1354L8.10516 60.064C4.69795 63.064 6.81936 68.6997 11.3622 68.6997H16.2265V138.214C14.555 138.257 12.8408 138.278 11.1694 138.321C10.2693 138.364 9.58373 139.093 9.60505 139.971C9.6265 140.85 10.3337 141.536 11.2122 141.536H11.2336C12.2623 141.514 116.641 141.578 116.641 141.557C131.512 141.45 143.555 129.321 143.555 114.407C143.555 101.293 134.212 90.3425 121.827 87.8354ZM18.9694 21.4925V15.2996H42.7765V21.4925H18.9694ZM37.9979 24.7068V33.8139L23.7694 46.3068V24.7068H37.9979ZM11.3622 65.4854C9.7765 65.4854 9.02654 63.5139 10.2265 62.4639L67.355 12.2997C68.0193 11.7425 68.9836 11.7425 69.6265 12.2997L126.798 62.4639C127.998 63.5139 127.248 65.4854 125.662 65.4854H11.3622ZM69.3693 138.15H36.7551V89.8924C36.7551 88.5424 37.848 87.4709 39.1979 87.4709H66.9479C68.2764 87.4709 69.3693 88.5424 69.3693 89.8924V138.15ZM72.5836 138.15V89.8924C72.5836 86.7853 70.0551 84.2568 66.9479 84.2568H39.1979C36.0908 84.2568 33.5408 86.7853 33.5408 89.8924V138.15H19.4408V68.721H117.584V79.8212H109.077C108.176 79.8212 107.469 80.5497 107.469 81.4283C107.469 82.3283 108.176 83.0354 109.077 83.0354H111.026V87.8354C98.5979 90.364 89.2979 101.528 89.2979 114.407V114.428C89.3193 124.564 95.0622 133.564 103.505 138.15H72.5836ZM118.612 83.0354V87.3854C117.455 87.2782 115.505 87.2782 114.241 87.3854V83.0354H118.612ZM116.448 138.343C103.077 138.343 92.5122 127.371 92.5122 114.407C92.5122 101.293 103.355 90.2996 116.855 90.514C129.712 90.7497 140.341 101.25 140.341 114.407C140.341 127.607 129.626 138.343 116.448 138.343Z" fill="#181A20"/>
<path d="M118.612 83.0354V87.3854C117.455 87.2783 115.505 87.2783 114.241 87.3854V83.0354H118.612Z" fill="#DDDDDD"/>
<path d="M18.9693 15.2998H42.7764V21.4927H18.9693V15.2998Z" fill="url(#paint0_linear_24_629)"/>
<path d="M37.9979 24.7068V33.814L23.7694 46.3069V24.7068H37.9979Z" fill="url(#paint1_linear_24_629)"/>
<path d="M66.9479 87.4712H39.1979C37.848 87.4712 36.7551 88.5426 36.7551 89.8926V138.15H69.3693V89.8926C69.3693 88.5426 68.2765 87.4712 66.9479 87.4712ZM62.898 114.493H60.7122C59.8123 114.493 59.1051 113.786 59.1051 112.886C59.1051 112.007 59.8123 111.278 60.7122 111.278H62.898C63.7765 111.278 64.5051 112.007 64.5051 112.886C64.5051 113.786 63.7765 114.493 62.898 114.493Z" fill="url(#paint2_linear_24_629)"/>
<path d="M68.5336 31.3926C61.6551 31.3926 56.0623 36.9854 56.0623 43.8641C56.0623 50.7212 61.6551 56.2926 68.5336 56.2926C75.3908 56.2926 80.9623 50.7212 80.9623 43.8641C80.9623 36.9854 75.3908 31.3926 68.5336 31.3926ZM68.5336 53.0783C63.4337 53.0783 59.2766 48.9426 59.2766 43.8641C59.2766 38.7641 63.4337 34.6069 68.5336 34.6069C73.6123 34.6069 77.748 38.764 77.748 43.8641C77.748 48.9426 73.6123 53.0783 68.5336 53.0783Z" fill="#181A20"/>
<path d="M77.748 43.8639C77.748 48.9425 73.6123 53.0782 68.5336 53.0782C63.4337 53.0782 59.2766 48.9425 59.2766 43.8639C59.2766 38.7639 63.4337 34.6067 68.5336 34.6067C73.6123 34.6067 77.748 38.7639 77.748 43.8639Z" fill="#DDDDDD"/>
<path d="M64.5051 112.886C64.5051 113.786 63.7765 114.493 62.898 114.493H60.7122C59.8123 114.493 59.1051 113.786 59.1051 112.886C59.1051 112.007 59.8123 111.278 60.7122 111.278H62.898C63.7765 111.278 64.5051 112.007 64.5051 112.886Z" fill="#181A20"/>
<path d="M95.6566 89.3963C96.0019 89.3963 96.3514 89.2854 96.6464 89.0531C96.8933 88.8606 97.1445 88.6681 97.3977 88.4839C98.1155 87.9608 98.2724 86.9563 97.7513 86.2385C97.2282 85.5207 96.2237 85.3596 95.5059 85.8849C95.2193 86.0941 94.9388 86.3076 94.6626 86.5252C93.9637 87.0714 93.8423 88.0821 94.3906 88.7811C94.7066 89.185 95.1795 89.3963 95.6566 89.3963Z" fill="#EB6753"/>
<path d="M83.0485 108.902C83.1615 108.927 83.2745 108.937 83.3875 108.937C84.1282 108.937 84.7958 108.421 84.957 107.667C86.1707 102.003 88.9162 96.752 92.8985 92.4851C93.5054 91.8364 93.4698 90.8194 92.8211 90.2146C92.1724 89.6077 91.1574 89.6433 90.5506 90.292C86.1707 94.9858 83.1489 100.762 81.8138 106.993C81.6276 107.862 82.18 108.716 83.0485 108.902Z" fill="#EB6753"/>
<path d="M116.441 96.1953C115.553 96.1953 114.834 96.9152 114.834 97.8025C114.834 98.6898 115.553 99.4096 116.441 99.4096C124.713 99.4096 131.443 106.14 131.443 114.412C131.443 122.692 124.713 129.431 116.441 129.431C111.161 129.431 106.363 126.735 103.611 122.219C103.148 121.464 102.161 121.223 101.401 121.684C100.643 122.146 100.403 123.136 100.865 123.894C104.207 129.374 110.031 132.645 116.441 132.645C126.485 132.645 134.657 124.465 134.657 114.412C134.657 104.367 126.485 96.1953 116.441 96.1953Z" fill="#181A20"/>
<path d="M118.034 111.728V105.278C118.034 104.4 117.326 103.671 116.427 103.671C115.548 103.671 114.819 104.4 114.819 105.278V111.728C112.548 112.414 110.876 114.514 110.876 117.021C110.876 120.086 113.362 122.571 116.427 122.571C119.491 122.571 121.998 120.086 121.998 117.021C121.998 114.514 120.327 112.414 118.034 111.728ZM116.427 119.357C115.141 119.357 114.091 118.307 114.091 117.021C114.091 115.736 115.141 114.664 116.427 114.664C117.712 114.664 118.784 115.736 118.784 117.021C118.784 118.307 117.712 119.357 116.427 119.357Z" fill="#181A20"/>
<path d="M118.784 117.021C118.784 118.307 117.712 119.357 116.427 119.357C115.141 119.357 114.091 118.307 114.091 117.021C114.091 115.735 115.141 114.664 116.427 114.664C117.712 114.664 118.784 115.735 118.784 117.021Z" fill="#DDDDDD"/>
</g>
</g>
<defs>
<linearGradient id="paint0_linear_24_629" x1="30.8729" y1="15.2998" x2="30.8729" y2="21.4927" gradientUnits="userSpaceOnUse">
<stop stop-color="#DDDDDD" stop-opacity="0"/>
<stop offset="1" stop-color="#DDDDDD"/>
</linearGradient>
<linearGradient id="paint1_linear_24_629" x1="30.8836" y1="24.7068" x2="30.8836" y2="46.3069" gradientUnits="userSpaceOnUse">
<stop stop-color="#DDDDDD" stop-opacity="0"/>
<stop offset="1" stop-color="#DDDDDD"/>
</linearGradient>
<linearGradient id="paint2_linear_24_629" x1="53.0622" y1="87.4712" x2="53.0622" y2="138.15" gradientUnits="userSpaceOnUse">
<stop stop-color="#DDDDDD" stop-opacity="0"/>
<stop offset="1" stop-color="#DDDDDD"/>
</linearGradient>
<clipPath id="clip0_24_629">
<rect width="150" height="150" fill="white" transform="translate(-0.00997162 0.119873)"/>
</clipPath>
<clipPath id="clip1_24_629">
<rect width="150" height="150" fill="white" transform="translate(-0.00997162 0.119873)"/>
</clipPath>
</defs>
</svg>
