<svg width="151" height="151" viewBox="0 0 151 151" fill="none" xmlns="http://www.w3.org/2000/svg">
<g clip-path="url(#clip0_24_686)">
<g clip-path="url(#clip1_24_686)">
<path d="M58.3556 74.0879H35.4852C34.598 74.0879 33.8781 74.8078 33.8781 75.6951V101.014C33.8781 101.901 34.598 102.621 35.4852 102.621C36.3725 102.621 37.0924 101.901 37.0924 101.014V77.3022H58.3556C59.2429 77.3022 59.9628 76.5824 59.9628 75.6951C59.9628 74.8078 59.2429 74.0879 58.3556 74.0879Z" fill="#EB6753"/>
<path d="M35.4852 105.44C34.598 105.44 33.8781 106.16 33.8781 107.047V109.6C33.8781 110.487 34.598 111.207 35.4852 111.207C36.3725 111.207 37.0924 110.487 37.0924 109.6V107.047C37.0924 106.16 36.3725 105.44 35.4852 105.44Z" fill="#EB6753"/>
<path d="M126.025 41.9114C126.472 41.9114 126.917 41.7272 127.234 41.3652C127.82 40.6977 127.754 39.6827 127.086 39.0968L108.86 23.1028C108.194 22.5168 107.177 22.5838 106.593 23.2493C106.007 23.9168 106.073 24.9318 106.74 25.5177L124.966 41.5117C125.271 41.7795 125.65 41.9114 126.025 41.9114Z" fill="#EB6753"/>
<path d="M103.383 22.0441C103.83 22.0441 104.273 21.8599 104.591 21.4979C105.177 20.8304 105.111 19.8154 104.445 19.2295L103.644 18.5264C102.977 17.9404 101.963 18.0074 101.376 18.6728C100.79 19.3404 100.856 20.3553 101.522 20.9412L102.323 21.6444C102.628 21.9122 103.006 22.0441 103.383 22.0441Z" fill="#EB6753"/>
<path d="M126.419 85.9561V68.9204H134.99C139.64 68.9204 141.805 63.1561 138.312 60.0918L79.2548 8.27754C77.3691 6.60605 74.4976 6.60605 72.6118 8.27754L47.6904 30.1346V23.4704H50.0691C51.4833 23.4704 52.6404 22.3347 52.6404 20.8989V13.1203C52.6404 11.7061 51.4833 10.549 50.0691 10.549H24.0762C22.6619 10.549 21.5048 11.7061 21.5048 13.1203V20.8989C21.5048 22.3347 22.6619 23.4704 24.0762 23.4704H26.4548V48.7775L13.5976 60.0918C10.0833 63.1561 12.269 68.9204 16.919 68.9204H25.5119V140.942H20.9691C20.0904 140.942 19.3619 141.67 19.3619 142.549C19.3619 143.427 20.0904 144.156 20.9691 144.156H130.941C131.84 144.156 132.548 143.427 132.548 142.549C132.548 141.67 131.84 140.942 130.941 140.942H126.419V123.692C134.262 121.013 139.94 113.577 139.94 104.813C139.94 96.0704 134.262 88.6347 126.419 85.9561ZM24.719 20.2561V13.7633H49.4261V20.2561H24.719ZM44.4761 23.4918V32.9632L29.669 45.9489V23.4918H44.4761ZM16.919 65.7061C15.2262 65.7061 14.4334 63.606 15.6976 62.4918L74.7333 10.6776C75.0762 10.3775 75.5048 10.2275 75.9333 10.2275C76.3618 10.2275 76.7904 10.3775 77.1333 10.6776L136.19 62.4918C137.455 63.606 136.683 65.7061 134.99 65.7061H16.919ZM123.205 140.942C84.3333 140.942 86.6475 140.942 28.7262 140.942V68.9204H123.205V85.1419C114.676 83.749 105.826 88.1203 101.948 96.349H77.5618V89.2561C77.5618 85.5061 74.5405 82.4846 70.7905 82.4846C67.0833 82.4846 64.0404 85.5276 64.0404 89.2561V120.413C64.0404 124.099 67.019 127.185 70.7905 127.185C74.5405 127.185 77.5618 124.142 77.5618 120.413V113.299H101.948C105.333 120.478 112.49 124.785 119.99 124.785C121.019 124.785 122.348 124.656 123.205 124.506V140.942ZM100.726 110.085H67.2547V99.5632C67.2547 99.5632 71.2404 99.5847 100.726 99.5632C99.8905 102.67 99.7618 106.506 100.726 110.085ZM74.3475 113.299V120.413C74.3475 122.363 72.7618 123.97 70.7905 123.97C68.8618 123.97 67.2547 122.385 67.2547 120.413V113.299H74.3475ZM67.2547 96.349V89.2561C67.2547 87.2847 68.8404 85.6989 70.7905 85.6989C72.7618 85.6989 74.3475 87.306 74.3475 89.2561V96.349H67.2547ZM119.99 121.57C115.64 121.57 111.698 119.877 108.698 117.156C105.719 114.435 103.726 110.663 103.319 106.506C102.333 96.6061 110.198 88.099 119.99 88.099C129.162 88.099 136.726 95.5775 136.726 104.813C136.726 114.156 129.076 121.57 119.99 121.57Z" fill="#181A20"/>
<path d="M119.99 88.0989C110.198 88.0989 102.333 96.606 103.319 106.506C103.726 110.663 105.719 114.435 108.698 117.156C111.697 119.878 115.64 121.57 119.99 121.57C129.076 121.57 136.726 114.156 136.726 104.813C136.726 95.5775 129.162 88.0989 119.99 88.0989ZM124.298 111.97C120.355 111.97 117.162 108.756 117.162 104.835C117.162 100.892 120.355 97.6774 124.298 97.6774C128.24 97.6774 131.455 100.892 131.455 104.835C131.455 108.756 128.24 111.97 124.298 111.97Z" fill="url(#paint0_linear_24_686)"/>
<path d="M74.3475 89.2559V96.3488H67.2547V89.2559C67.2547 87.2845 68.8404 85.6987 70.7904 85.6987C72.7618 85.6987 74.3475 87.3058 74.3475 89.2559Z" fill="#DDDDDD"/>
<path d="M74.3475 113.299V120.413C74.3475 122.363 72.7618 123.97 70.7904 123.97C68.8618 123.97 67.2547 122.385 67.2547 120.413V113.299H74.3475Z" fill="#DDDDDD"/>
<path d="M24.7186 13.7642H49.4257V20.2571H24.7186V13.7642Z" fill="url(#paint1_linear_24_686)"/>
<path d="M44.4761 23.4917V32.963L29.669 45.9488V23.4917H44.4761Z" fill="url(#paint2_linear_24_686)"/>
<path d="M75.9547 30.6274C68.9689 30.6274 63.269 36.3273 63.269 43.3131C63.269 50.2988 68.9689 55.9773 75.9547 55.9773C82.9404 55.9773 88.619 50.2988 88.619 43.3131C88.619 36.3273 82.9404 30.6274 75.9547 30.6274ZM75.9547 52.763C70.7475 52.763 66.4833 48.5202 66.4833 43.3131C66.4833 38.0845 70.7475 33.8417 75.9547 33.8417C81.1618 33.8417 85.4047 38.0845 85.4047 43.3131C85.4048 48.5202 81.1618 52.763 75.9547 52.763Z" fill="#181A20"/>
<path d="M85.4048 43.313C85.4048 48.5201 81.1618 52.763 75.9547 52.763C70.7476 52.763 66.4833 48.5201 66.4833 43.313C66.4833 38.0844 70.7476 33.8416 75.9547 33.8416C81.1618 33.8416 85.4048 38.0844 85.4048 43.313Z" fill="#DDDDDD"/>
<path d="M86.3467 121.67H87.3229C88.2102 121.67 88.9301 120.951 88.9301 120.063C88.9301 119.176 88.2102 118.456 87.3229 118.456H86.3467C85.4594 118.456 84.7396 119.176 84.7396 120.063C84.7396 120.951 85.4594 121.67 86.3467 121.67Z" fill="#EB6753"/>
<path d="M92.791 121.67H101.635C102.523 121.67 103.243 120.951 103.243 120.063C103.243 119.176 102.523 118.456 101.635 118.456H92.791C91.9037 118.456 91.1838 119.176 91.1838 120.063C91.1838 120.951 91.9037 121.67 92.791 121.67Z" fill="#EB6753"/>
<path d="M124.298 97.6772C120.355 97.6772 117.162 100.892 117.162 104.835C117.162 108.756 120.355 111.97 124.298 111.97C128.24 111.97 131.455 108.756 131.455 104.835C131.455 100.892 128.24 97.6772 124.298 97.6772ZM124.298 108.756C122.133 108.756 120.376 106.999 120.376 104.835C120.376 102.67 122.133 100.892 124.298 100.892C126.462 100.892 128.24 102.67 128.24 104.835C128.24 106.999 126.462 108.756 124.298 108.756Z" fill="#181A20"/>
</g>
</g>
<defs>
<linearGradient id="paint0_linear_24_686" x1="119.981" y1="88.0989" x2="119.981" y2="121.57" gradientUnits="userSpaceOnUse">
<stop stop-color="#DDDDDD" stop-opacity="0"/>
<stop offset="1" stop-color="#DDDDDD"/>
</linearGradient>
<linearGradient id="paint1_linear_24_686" x1="37.0721" y1="13.7642" x2="37.0721" y2="20.2571" gradientUnits="userSpaceOnUse">
<stop stop-color="#DDDDDD" stop-opacity="0"/>
<stop offset="1" stop-color="#DDDDDD"/>
</linearGradient>
<linearGradient id="paint2_linear_24_686" x1="37.0726" y1="23.4917" x2="37.0726" y2="45.9488" gradientUnits="userSpaceOnUse">
<stop stop-color="#DDDDDD" stop-opacity="0"/>
<stop offset="1" stop-color="#DDDDDD"/>
</linearGradient>
<clipPath id="clip0_24_686">
<rect width="150" height="150" fill="white" transform="translate(0.949982 0.589844)"/>
</clipPath>
<clipPath id="clip1_24_686">
<rect width="150" height="150" fill="white" transform="translate(0.949982 0.589844)"/>
</clipPath>
</defs>
</svg>
