<svg width="175" height="49" viewBox="0 0 175 49" fill="none" xmlns="http://www.w3.org/2000/svg">
<path d="M6.16667 24.5C6.16667 23.0272 4.97276 21.8333 3.5 21.8333C2.02724 21.8333 0.833336 23.0272 0.833336 24.5C0.833336 25.9728 2.02724 27.1667 3.5 27.1667C4.97276 27.1667 6.16667 25.9728 6.16667 24.5ZM39.5 24L3.5 24L3.5 25L39.5 25L39.5 24Z" fill="black"/>
<path d="M104 17L93.5 17V6.5C93.5 5.30653 93.0259 4.16193 92.182 3.31802C91.3381 2.47411 90.1935 2 89 2L71 2C69.8065 2 68.6619 2.47411 67.818 3.31802C66.9741 4.16193 66.5 5.30653 66.5 6.5L66.5 45.5C66.5 45.8978 66.658 46.2794 66.9393 46.5607C67.2206 46.842 67.6022 47 68 47H77.75C77.9489 47 78.1397 46.921 78.2803 46.7803C78.421 46.6397 78.5 46.4489 78.5 46.25V39.5422C78.5 38.735 79.1206 38.0422 79.9278 38.0019C80.1306 37.9921 80.3333 38.0236 80.5236 38.0945C80.7139 38.1654 80.8878 38.2741 81.0348 38.4142C81.1818 38.5543 81.2988 38.7227 81.3788 38.9094C81.4587 39.096 81.5 39.297 81.5 39.5V46.25C81.5 46.4489 81.579 46.6397 81.7197 46.7803C81.8603 46.921 82.0511 47 82.25 47L107 47C107.398 47 107.779 46.842 108.061 46.5607C108.342 46.2794 108.5 45.8978 108.5 45.5L108.5 21.5C108.5 20.3065 108.026 19.1619 107.182 18.318C106.338 17.4741 105.193 17 104 17ZM72.695 40.9878C72.3843 41.0284 72.0688 40.9708 71.7925 40.8229C71.5163 40.675 71.2933 40.4444 71.1549 40.1633C71.0164 39.8823 70.9695 39.5649 71.0206 39.2558C71.0717 38.9467 71.2183 38.6614 71.4398 38.4398C71.6614 38.2183 71.9467 38.0717 72.2558 38.0206C72.5649 37.9695 72.8823 38.0164 73.1633 38.1549C73.4444 38.2933 73.675 38.5163 73.8229 38.7925C73.9708 39.0688 74.0284 39.3843 73.9878 39.695C73.9449 40.0228 73.7949 40.3273 73.5611 40.5611C73.3273 40.7949 73.0228 40.9449 72.695 40.9878ZM72.695 33.4878C72.3843 33.5284 72.0688 33.4708 71.7925 33.3229C71.5163 33.175 71.2933 32.9444 71.1549 32.6633C71.0164 32.3823 70.9695 32.0649 71.0206 31.7558C71.0717 31.4467 71.2183 31.1614 71.4398 30.9398C71.6614 30.7183 71.9467 30.5717 72.2558 30.5206C72.5649 30.4695 72.8823 30.5164 73.1633 30.6549C73.4444 30.7933 73.675 31.0163 73.8229 31.2925C73.9708 31.5688 74.0284 31.8843 73.9878 32.195C73.9449 32.5228 73.7949 32.8273 73.5611 33.0611C73.3273 33.2949 73.0228 33.4449 72.695 33.4878ZM72.695 25.9878C72.3843 26.0284 72.0688 25.9708 71.7925 25.8229C71.5163 25.675 71.2933 25.4444 71.1549 25.1633C71.0164 24.8823 70.9695 24.5649 71.0206 24.2558C71.0717 23.9467 71.2183 23.6614 71.4398 23.4398C71.6614 23.2183 71.9467 23.0717 72.2558 23.0206C72.5649 22.9695 72.8823 23.0164 73.1633 23.1549C73.4444 23.2933 73.675 23.5163 73.8229 23.7925C73.9708 24.0688 74.0284 24.3843 73.9878 24.695C73.9449 25.0228 73.7949 25.3273 73.5611 25.5611C73.3273 25.7949 73.0228 25.9449 72.695 25.9878ZM72.695 18.4878C72.3843 18.5284 72.0688 18.4708 71.7925 18.3229C71.5163 18.175 71.2933 17.9444 71.1549 17.6633C71.0164 17.3823 70.9695 17.0649 71.0206 16.7558C71.0717 16.4467 71.2183 16.1614 71.4398 15.9398C71.6614 15.7183 71.9467 15.5717 72.2558 15.5206C72.5649 15.4695 72.8823 15.5164 73.1633 15.6549C73.4444 15.7933 73.675 16.0163 73.8229 16.2925C73.9708 16.5688 74.0284 16.8843 73.9878 17.195C73.9449 17.5228 73.7949 17.8273 73.5611 18.0611C73.3273 18.2949 73.0228 18.4449 72.695 18.4878ZM72.695 10.9878C72.3843 11.0284 72.0688 10.9708 71.7925 10.8229C71.5163 10.675 71.2933 10.4444 71.1549 10.1633C71.0164 9.88228 70.9695 9.56493 71.0206 9.25582C71.0717 8.94671 71.2183 8.66136 71.4398 8.43982C71.6614 8.21828 71.9467 8.07167 72.2558 8.02057C72.5649 7.96946 72.8823 8.01644 73.1633 8.15489C73.4444 8.29334 73.675 8.51632 73.8229 8.79254C73.9708 9.06875 74.0284 9.38434 73.9878 9.695C73.9449 10.0228 73.7949 10.3273 73.5611 10.5611C73.3273 10.7949 73.0228 10.9449 72.695 10.9878ZM80.195 33.4878C79.8843 33.5284 79.5688 33.4708 79.2925 33.3229C79.0163 33.175 78.7933 32.9444 78.6549 32.6633C78.5164 32.3823 78.4695 32.0649 78.5206 31.7558C78.5717 31.4467 78.7183 31.1614 78.9398 30.9398C79.1614 30.7183 79.4467 30.5717 79.7558 30.5206C80.0649 30.4695 80.3823 30.5164 80.6633 30.6549C80.9444 30.7933 81.175 31.0163 81.3229 31.2925C81.4708 31.5688 81.5284 31.8843 81.4878 32.195C81.4449 32.5228 81.2949 32.8273 81.0611 33.0611C80.8273 33.2949 80.5228 33.4449 80.195 33.4878ZM80.195 25.9878C79.8843 26.0284 79.5688 25.9708 79.2925 25.8229C79.0163 25.675 78.7933 25.4444 78.6549 25.1633C78.5164 24.8823 78.4695 24.5649 78.5206 24.2558C78.5717 23.9467 78.7183 23.6614 78.9398 23.4398C79.1614 23.2183 79.4467 23.0717 79.7558 23.0206C80.0649 22.9695 80.3823 23.0164 80.6633 23.1549C80.9444 23.2933 81.175 23.5163 81.3229 23.7925C81.4708 24.0688 81.5284 24.3843 81.4878 24.695C81.4449 25.0228 81.2949 25.3273 81.0611 25.5611C80.8273 25.7949 80.5228 25.9449 80.195 25.9878ZM80.195 18.4878C79.8843 18.5284 79.5688 18.4708 79.2925 18.3229C79.0163 18.175 78.7933 17.9444 78.6549 17.6633C78.5164 17.3823 78.4695 17.0649 78.5206 16.7558C78.5717 16.4467 78.7183 16.1614 78.9398 15.9398C79.1614 15.7183 79.4467 15.5717 79.7558 15.5206C80.0649 15.4695 80.3823 15.5164 80.6633 15.6549C80.9444 15.7933 81.175 16.0163 81.3229 16.2925C81.4708 16.5688 81.5284 16.8843 81.4878 17.195C81.4449 17.5228 81.2949 17.8273 81.0611 18.0611C80.8273 18.2949 80.5228 18.4449 80.195 18.4878ZM80.195 10.9878C79.8843 11.0284 79.5688 10.9708 79.2925 10.8229C79.0163 10.675 78.7933 10.4444 78.6549 10.1633C78.5164 9.88228 78.4695 9.56493 78.5206 9.25582C78.5717 8.94671 78.7183 8.66136 78.9398 8.43982C79.1614 8.21828 79.4467 8.07167 79.7558 8.02057C80.0649 7.96946 80.3823 8.01644 80.6633 8.15489C80.9444 8.29334 81.175 8.51632 81.3229 8.79254C81.4708 9.06875 81.5284 9.38434 81.4878 9.695C81.4449 10.0228 81.2949 10.3273 81.0611 10.5611C80.8273 10.7949 80.5228 10.9449 80.195 10.9878ZM87.695 40.9878C87.3843 41.0284 87.0688 40.9708 86.7925 40.8229C86.5163 40.675 86.2933 40.4444 86.1549 40.1633C86.0164 39.8823 85.9695 39.5649 86.0206 39.2558C86.0717 38.9467 86.2183 38.6614 86.4398 38.4398C86.6614 38.2183 86.9467 38.0717 87.2558 38.0206C87.5649 37.9695 87.8823 38.0164 88.1633 38.1549C88.4444 38.2933 88.675 38.5163 88.8229 38.7925C88.9708 39.0688 89.0284 39.3843 88.9878 39.695C88.9449 40.0228 88.7949 40.3273 88.5611 40.5611C88.3273 40.7949 88.0228 40.9449 87.695 40.9878ZM87.695 33.4878C87.3843 33.5284 87.0688 33.4708 86.7925 33.3229C86.5163 33.175 86.2933 32.9444 86.1549 32.6633C86.0164 32.3823 85.9695 32.0649 86.0206 31.7558C86.0717 31.4467 86.2183 31.1614 86.4398 30.9398C86.6614 30.7183 86.9467 30.5717 87.2558 30.5206C87.5649 30.4695 87.8823 30.5164 88.1633 30.6549C88.4444 30.7933 88.675 31.0163 88.8229 31.2925C88.9708 31.5688 89.0284 31.8843 88.9878 32.195C88.9449 32.5228 88.7949 32.8273 88.5611 33.0611C88.3273 33.2949 88.0228 33.4449 87.695 33.4878ZM87.695 25.9878C87.3843 26.0284 87.0688 25.9708 86.7925 25.8229C86.5163 25.675 86.2933 25.4444 86.1549 25.1633C86.0164 24.8823 85.9695 24.5649 86.0206 24.2558C86.0717 23.9467 86.2183 23.6614 86.4398 23.4398C86.6614 23.2183 86.9467 23.0717 87.2558 23.0206C87.5649 22.9695 87.8823 23.0164 88.1633 23.1549C88.4444 23.2933 88.675 23.5163 88.8229 23.7925C88.9708 24.0688 89.0284 24.3843 88.9878 24.695C88.9449 25.0228 88.7949 25.3273 88.5611 25.5611C88.3273 25.7949 88.0228 25.9449 87.695 25.9878ZM87.695 18.4878C87.3843 18.5284 87.0688 18.4708 86.7925 18.3229C86.5163 18.175 86.2933 17.9444 86.1549 17.6633C86.0164 17.3823 85.9695 17.0649 86.0206 16.7558C86.0717 16.4467 86.2183 16.1614 86.4398 15.9398C86.6614 15.7183 86.9467 15.5717 87.2558 15.5206C87.5649 15.4695 87.8823 15.5164 88.1633 15.6549C88.4444 15.7933 88.675 16.0163 88.8229 16.2925C88.9708 16.5688 89.0284 16.8843 88.9878 17.195C88.9449 17.5228 88.7949 17.8273 88.5611 18.0611C88.3273 18.2949 88.0228 18.4449 87.695 18.4878ZM87.695 10.9878C87.3843 11.0284 87.0688 10.9708 86.7925 10.8229C86.5163 10.675 86.2933 10.4444 86.1549 10.1633C86.0164 9.88228 85.9695 9.56493 86.0206 9.25582C86.0717 8.94671 86.2183 8.66136 86.4398 8.43982C86.6614 8.21828 86.9467 8.07167 87.2558 8.02057C87.5649 7.96946 87.8823 8.01644 88.1633 8.15489C88.4444 8.29334 88.675 8.51632 88.8229 8.79254C88.9708 9.06875 89.0284 9.38434 88.9878 9.695C88.9449 10.0228 88.7949 10.3273 88.5611 10.5611C88.3273 10.7949 88.0228 10.9449 87.695 10.9878ZM105.125 44L93.5 44L93.5 20L104 20C104.398 20 104.779 20.158 105.061 20.4393C105.342 20.7206 105.5 21.1022 105.5 21.5L105.5 43.625C105.5 43.7245 105.46 43.8198 105.39 43.8902C105.32 43.9605 105.224 44 105.125 44Z" fill="#112211"/>
<path d="M101 38C100.703 38 100.413 38.088 100.167 38.2528C99.92 38.4176 99.7277 38.6519 99.6142 38.926C99.5006 39.2001 99.4709 39.5017 99.5288 39.7926C99.5867 40.0836 99.7296 40.3509 99.9393 40.5607C100.149 40.7704 100.416 40.9133 100.707 40.9712C100.998 41.0291 101.3 40.9993 101.574 40.8858C101.848 40.7723 102.082 40.58 102.247 40.3334C102.412 40.0867 102.5 39.7967 102.5 39.5C102.5 39.1022 102.342 38.7206 102.061 38.4393C101.779 38.158 101.398 38 101 38ZM101 30.5C100.703 30.5 100.413 30.588 100.167 30.7528C99.92 30.9176 99.7277 31.1519 99.6142 31.426C99.5006 31.7001 99.4709 32.0017 99.5288 32.2926C99.5867 32.5836 99.7296 32.8509 99.9393 33.0607C100.149 33.2704 100.416 33.4133 100.707 33.4712C100.998 33.5291 101.3 33.4993 101.574 33.3858C101.848 33.2723 102.082 33.08 102.247 32.8334C102.412 32.5867 102.5 32.2967 102.5 32C102.5 31.6022 102.342 31.2206 102.061 30.9393C101.779 30.658 101.398 30.5 101 30.5ZM101 23C100.703 23 100.413 23.088 100.167 23.2528C99.92 23.4176 99.7277 23.6519 99.6142 23.926C99.5006 24.2001 99.4709 24.5017 99.5288 24.7926C99.5867 25.0836 99.7296 25.3509 99.9393 25.5607C100.149 25.7704 100.416 25.9133 100.707 25.9712C100.998 26.0291 101.3 25.9994 101.574 25.8858C101.848 25.7723 102.082 25.58 102.247 25.3334C102.412 25.0867 102.5 24.7967 102.5 24.5C102.5 24.1022 102.342 23.7206 102.061 23.4393C101.779 23.158 101.398 23 101 23ZM95 38C94.7033 38 94.4133 38.088 94.1666 38.2528C93.92 38.4176 93.7277 38.6519 93.6142 38.926C93.5006 39.2001 93.4709 39.5017 93.5288 39.7926C93.5867 40.0836 93.7296 40.3509 93.9393 40.5607C94.1491 40.7704 94.4164 40.9133 94.7074 40.9712C94.9983 41.0291 95.2999 40.9993 95.574 40.8858C95.8481 40.7723 96.0824 40.58 96.2472 40.3334C96.412 40.0867 96.5 39.7967 96.5 39.5C96.5 39.1022 96.342 38.7206 96.0607 38.4393C95.7794 38.158 95.3978 38 95 38ZM95 30.5C94.7033 30.5 94.4133 30.588 94.1666 30.7528C93.92 30.9176 93.7277 31.1519 93.6142 31.426C93.5006 31.7001 93.4709 32.0017 93.5288 32.2926C93.5867 32.5836 93.7296 32.8509 93.9393 33.0607C94.1491 33.2704 94.4164 33.4133 94.7074 33.4712C94.9983 33.5291 95.2999 33.4993 95.574 33.3858C95.8481 33.2723 96.0824 33.08 96.2472 32.8334C96.412 32.5867 96.5 32.2967 96.5 32C96.5 31.6022 96.342 31.2206 96.0607 30.9393C95.7794 30.658 95.3978 30.5 95 30.5ZM95 23C94.7033 23 94.4133 23.088 94.1666 23.2528C93.92 23.4176 93.7277 23.6519 93.6142 23.926C93.5006 24.2001 93.4709 24.5017 93.5288 24.7926C93.5867 25.0836 93.7296 25.3509 93.9393 25.5607C94.1491 25.7704 94.4164 25.9133 94.7074 25.9712C94.9983 26.0291 95.2999 25.9994 95.574 25.8858C95.8481 25.7723 96.0824 25.58 96.2472 25.3334C96.412 25.0867 96.5 24.7967 96.5 24.5C96.5 24.1022 96.342 23.7206 96.0607 23.4393C95.7794 23.158 95.3978 23 95 23Z" fill="black"/>
<path d="M174.167 24.5C174.167 23.0272 172.973 21.8333 171.5 21.8333C170.027 21.8333 168.833 23.0272 168.833 24.5C168.833 25.9728 170.027 27.1667 171.5 27.1667C172.973 27.1667 174.167 25.9728 174.167 24.5ZM171.5 24L135.5 24L135.5 25L171.5 25L171.5 24Z" fill="black"/>
</svg>
