<svg width="36" height="35" viewBox="0 0 36 35" fill="none" xmlns="http://www.w3.org/2000/svg">
<path d="M34.2873 18.8822C34.0412 16.1198 33.6358 15.5818 33.4827 15.3795C33.1306 14.9119 32.5673 14.6063 31.9712 14.2857C31.9375 14.2679 31.9084 14.2425 31.8862 14.2115C31.864 14.1805 31.8493 14.1448 31.8433 14.1071C31.8373 14.0695 31.8401 14.0309 31.8515 13.9945C31.8629 13.9582 31.8826 13.9249 31.909 13.8975C32.0194 13.7855 32.1043 13.651 32.1577 13.5031C32.2112 13.3553 32.232 13.1976 32.2187 13.0409C32.193 12.7631 32.0638 12.5051 31.8568 12.3181C31.6498 12.1311 31.38 12.0287 31.101 12.0312H30.0346C29.9889 12.0315 29.9433 12.0345 29.8979 12.0401C29.8668 12.0266 29.8345 12.0159 29.8015 12.008C29.1699 10.6729 28.3051 8.84502 26.5127 7.95293C23.8543 6.63086 18.957 6.5625 18 6.5625C17.0429 6.5625 12.1457 6.63086 9.49058 7.95088C7.6982 8.84297 6.83346 10.6709 6.20181 12.006L6.19635 12.0169C6.16484 12.0213 6.1339 12.0291 6.10406 12.0401C6.0587 12.0345 6.01305 12.0315 5.96734 12.0312H4.89888C4.6199 12.0287 4.35015 12.1311 4.14312 12.3181C3.9361 12.5051 3.80692 12.7631 3.78121 13.0409C3.76907 13.1972 3.79082 13.3543 3.84497 13.5014C3.89912 13.6485 3.9844 13.7822 4.09498 13.8934C4.12143 13.9208 4.14114 13.9541 4.15255 13.9904C4.16397 14.0268 4.16677 14.0654 4.16073 14.103C4.1547 14.1407 4.14 14.1764 4.11779 14.2074C4.09559 14.2384 4.06648 14.2638 4.03277 14.2816C3.43668 14.6043 2.87066 14.9099 2.52135 15.3754C2.36822 15.5805 1.96353 16.1157 1.71676 18.8781C1.58004 20.4326 1.55953 22.0418 1.66685 23.0781C1.89176 25.2314 2.31353 26.533 2.33131 26.587C2.39603 26.7835 2.51517 26.9577 2.67489 27.0892C2.83461 27.2207 3.02836 27.3043 3.23365 27.3301V27.3438C3.23365 27.6338 3.34888 27.912 3.554 28.1171C3.75912 28.3223 4.03732 28.4375 4.3274 28.4375H8.15552C8.44561 28.4375 8.72381 28.3223 8.92892 28.1171C9.13404 27.912 9.24927 27.6338 9.24927 27.3438C9.83785 27.3438 10.2473 27.2385 10.6814 27.1264C11.3081 26.9576 11.9487 26.8452 12.5955 26.7907C14.6811 26.5918 16.7551 26.5234 18 26.5234C19.2195 26.5234 21.3851 26.5918 23.4742 26.7907C24.1235 26.8452 24.7666 26.958 25.3958 27.1277C25.8114 27.2344 26.2058 27.3328 26.752 27.3431C26.752 27.6331 26.8672 27.9113 27.0724 28.1165C27.2775 28.3216 27.5557 28.4368 27.8458 28.4368H31.6739C31.964 28.4368 32.2422 28.3216 32.4473 28.1165C32.6524 27.9113 32.7676 27.6331 32.7676 27.3431V27.3349C32.9734 27.3095 33.1677 27.2262 33.328 27.0947C33.4882 26.9631 33.6078 26.7887 33.6727 26.5918C33.6905 26.5378 34.1123 25.2362 34.3372 23.0829C34.4445 22.0459 34.4253 20.4395 34.2873 18.8822ZM8.17877 12.9411C8.72564 11.779 9.35113 10.4638 10.4647 9.90938C12.0739 9.1082 15.4091 8.74727 18 8.74727C20.5908 8.74727 23.926 9.10547 25.5352 9.90938C26.6488 10.4638 27.2715 11.7797 27.8211 12.9411L27.8895 13.0895C27.9295 13.1739 27.9472 13.2672 27.9408 13.3604C27.9345 13.4536 27.9044 13.5437 27.8534 13.6219C27.8024 13.7002 27.7322 13.7641 27.6495 13.8076C27.5668 13.851 27.4743 13.8726 27.3809 13.8701C25.1093 13.8086 20.3242 13.6117 18 13.6117C15.6757 13.6117 10.8906 13.8134 8.61558 13.8749C8.52218 13.8773 8.42972 13.8558 8.347 13.8124C8.26428 13.7689 8.19407 13.705 8.14307 13.6267C8.09207 13.5485 8.06198 13.4584 8.05566 13.3652C8.04934 13.272 8.06702 13.1787 8.10699 13.0942C8.13092 13.0437 8.15621 12.9924 8.17877 12.9411ZM8.99429 18.3846C7.81838 18.5261 6.63494 18.596 5.45054 18.5938C4.72594 18.5938 3.97877 18.3887 3.84 17.7434C3.74498 17.3093 3.75523 17.0652 3.8065 16.8198C3.84957 16.6113 3.91793 16.4596 4.25972 16.4062C5.1484 16.2695 5.64537 16.4411 7.10006 16.8697C8.06461 17.1534 8.76051 17.5314 9.15699 17.8309C9.35592 17.9785 9.24996 18.3641 8.99429 18.3846ZM24.1277 23.99C23.2281 24.0926 21.4289 24.055 18.0205 24.055C14.6121 24.055 12.8135 24.0926 11.9139 23.99C10.9856 23.8868 9.8023 23.0091 10.6103 22.2271C11.1483 21.7116 12.4034 21.3261 14.0748 21.1094C15.7461 20.8927 16.4537 20.7812 18.0136 20.7812C19.5736 20.7812 20.2093 20.8496 21.9525 21.1101C23.6957 21.3705 25.0129 21.7608 25.4169 22.2277C26.1539 23.0645 25.0553 23.8813 24.1277 23.9941V23.99ZM32.1599 17.7427C32.0232 18.3907 31.2712 18.5931 30.5494 18.5931C29.3423 18.5933 28.1362 18.5235 26.9373 18.3839C26.7281 18.3641 26.631 17.997 26.8429 17.8302C27.2333 17.5232 27.9367 17.1527 28.8999 16.869C30.3545 16.4404 31.1933 16.2688 31.9138 16.4117C32.0895 16.4466 32.1825 16.6353 32.1934 16.7535C32.2417 17.0828 32.2303 17.4181 32.1599 17.7434V17.7427Z" fill="white"/>
</svg>
