<svg width="34" height="32" viewBox="0 0 34 32" fill="none" xmlns="http://www.w3.org/2000/svg">
<path d="M2.125 26.4771L4.25 26.4771V27.0001L8.34275 27.6861L28.2413 28.1001L31.875 27.0001L27.1788 24.7901C24.6712 23.6101 21.9194 23.0001 19.125 23.0001H17L15.9375 24.0001H12.75V21.0001C11.5522 20.9998 10.3708 21.2627 9.30006 21.7681C8.8825 21.9651 8.71781 22.3581 8.34275 22.6251C8.06225 22.8251 7.49806 23.1651 7.24625 23.4021L6.375 24.0001V19.9771H2.125V26.4771Z" fill="#F8312F"/>
<path d="M4.25 25L27.625 25L29.75 26L4.25 26V25Z" fill="#F4F4F4"/>
<path d="M6.375 20H2.125V19H6.375V20Z" fill="#E6E6E6"/>
<path d="M6.375 27L31.875 27V29L6.375 29V27Z" fill="#CA0B4A"/>
<path d="M2.125 22L6.375 22V21L2.125 21V22ZM14.875 29H12.2187C11.3369 29 10.625 28.33 10.625 27.5C10.625 26.67 11.3369 26 12.2188 26H14.875L14.875 29Z" fill="#F9C23C"/>
<path d="M13.8125 24H12.75V21C13.3344 21 13.8125 21.45 13.8125 22V24ZM15.9375 26H14.875L14.875 29H15.9375L15.9375 26Z" fill="#636363"/>
<path d="M9.3075 21.7639L11.6875 23.9999H6.375L7.31 23.1199C7.89407 22.5698 8.56856 22.1119 9.3075 21.7639Z" fill="#E6E6E6"/>
<path d="M21.25 26.5C21.25 27.4283 21.6418 28.3185 22.3392 28.9749C23.0366 29.6313 23.9825 30 24.9688 30C25.955 30 26.9009 29.6313 27.5983 28.9749C28.2957 28.3185 28.6875 27.4283 28.6875 26.5C28.6875 25.5717 28.2957 24.6815 27.5983 24.0251C26.9009 23.3687 25.955 23 24.9688 23C23.9825 23 23.0366 23.3687 22.3392 24.0251C21.6418 24.6815 21.25 25.5717 21.25 26.5ZM2.125 26.5C2.125 27.4283 2.51679 28.3185 3.2142 28.9749C3.9116 29.6313 4.85748 30 5.84375 30C6.83002 30 7.7759 29.6313 8.4733 28.9749C9.17071 28.3185 9.5625 27.4283 9.5625 26.5C9.5625 25.5717 9.17071 24.6815 8.4733 24.0251C7.7759 23.3687 6.83002 23 5.84375 23C4.85748 23 3.9116 23.3687 3.2142 24.0251C2.51679 24.6815 2.125 25.5717 2.125 26.5Z" fill="#321B41"/>
<path d="M23.375 26.5C23.375 26.8978 23.5429 27.2794 23.8418 27.5607C24.1407 27.842 24.5461 28 24.9688 28C25.3914 28 25.7968 27.842 26.0957 27.5607C26.3946 27.2794 26.5625 26.8978 26.5625 26.5C26.5625 26.1022 26.3946 25.7206 26.0957 25.4393C25.7968 25.158 25.3914 25 24.9688 25C24.5461 25 24.1407 25.158 23.8418 25.4393C23.5429 25.7206 23.375 26.1022 23.375 26.5ZM4.25 26.5C4.25 26.8978 4.41791 27.2794 4.7168 27.5607C5.01569 27.842 5.42106 28 5.84375 28C6.26644 28 6.67181 27.842 6.9707 27.5607C7.26959 27.2794 7.4375 26.8978 7.4375 26.5C7.4375 26.1022 7.26959 25.7206 6.9707 25.4393C6.67181 25.158 6.26644 25 5.84375 25C5.42106 25 5.01569 25.158 4.7168 25.4393C4.41791 25.7206 4.25 26.1022 4.25 26.5Z" fill="#F4F4F4"/>
</svg>
