<svg width="22" height="27" viewBox="0 0 22 27" fill="none" xmlns="http://www.w3.org/2000/svg">
<path d="M8.66667 17.3333H12.6667L11.9 13.0333C12.3444 12.8111 12.6944 12.4889 12.95 12.0667C13.2056 11.6444 13.3333 11.1778 13.3333 10.6667C13.3333 9.93333 13.0722 9.30556 12.55 8.78333C12.0278 8.26111 11.4 8 10.6667 8C9.93333 8 9.30556 8.26111 8.78333 8.78333C8.26111 9.30556 8 9.93333 8 10.6667C8 11.1778 8.12778 11.6444 8.38333 12.0667C8.63889 12.4889 8.98889 12.8111 9.43333 13.0333L8.66667 17.3333ZM10.6667 26.6667C7.57778 25.8889 5.02778 24.1167 3.01667 21.35C1.00556 18.5833 0 15.5111 0 12.1333V4L10.6667 0L21.3333 4V12.1333C21.3333 15.5111 20.3278 18.5833 18.3167 21.35C16.3056 24.1167 13.7556 25.8889 10.6667 26.6667ZM10.6667 23.8667C12.9778 23.1333 14.8889 21.6667 16.4 19.4667C17.9111 17.2667 18.6667 14.8222 18.6667 12.1333V5.83333L10.6667 2.83333L2.66667 5.83333V12.1333C2.66667 14.8222 3.42222 17.2667 4.93333 19.4667C6.44444 21.6667 8.35556 23.1333 10.6667 23.8667Z" fill="white"/>
</svg>
