<svg width="20" height="20" viewBox="0 0 20 20" fill="none" xmlns="http://www.w3.org/2000/svg">
<path d="M13.4166 11.0833L12.2083 9.875C12.3333 9.22223 12.1458 8.61111 11.6458 8.04167C11.1458 7.47222 10.5 7.25 9.70831 7.375L8.49998 6.16667C8.73609 6.05556 8.97567 5.97222 9.21873 5.91667C9.46179 5.86111 9.7222 5.83334 9.99998 5.83334C11.0416 5.83334 11.9271 6.19792 12.6562 6.92709C13.3854 7.65625 13.75 8.54167 13.75 9.58334C13.75 9.86111 13.7222 10.1215 13.6666 10.3646C13.6111 10.6076 13.5278 10.8472 13.4166 11.0833ZM16.0833 13.7083L14.875 12.5417C15.4028 12.1389 15.8715 11.6979 16.2812 11.2188C16.691 10.7396 17.0416 10.1944 17.3333 9.58334C16.6389 8.18056 15.6423 7.06597 14.3437 6.23959C13.0451 5.4132 11.5972 5 9.99998 5C9.5972 5 9.20137 5.02778 8.81248 5.08334C8.42359 5.13889 8.04165 5.22222 7.66665 5.33334L6.37498 4.04167C6.94442 3.80556 7.52776 3.62847 8.12498 3.51042C8.7222 3.39236 9.3472 3.33334 9.99998 3.33334C12.0972 3.33334 13.9653 3.9132 15.6041 5.07292C17.243 6.23264 18.4305 7.73611 19.1666 9.58334C18.8472 10.4028 18.4271 11.1632 17.9062 11.8646C17.3854 12.566 16.7778 13.1806 16.0833 13.7083ZM16.5 18.8333L13 15.375C12.5139 15.5278 12.0243 15.6424 11.5312 15.7188C11.0382 15.7951 10.5278 15.8333 9.99998 15.8333C7.90276 15.8333 6.0347 15.2535 4.39581 14.0938C2.75692 12.934 1.56942 11.4306 0.833313 9.58334C1.12498 8.84723 1.49304 8.1632 1.93748 7.53125C2.38192 6.89931 2.88887 6.33334 3.45831 5.83334L1.16665 3.5L2.33331 2.33334L17.6666 17.6667L16.5 18.8333ZM4.62498 7C4.2222 7.36111 3.85415 7.75695 3.52081 8.1875C3.18748 8.61806 2.90276 9.08334 2.66665 9.58334C3.36109 10.9861 4.35762 12.1007 5.65623 12.9271C6.95484 13.7535 8.40276 14.1667 9.99998 14.1667C10.2778 14.1667 10.5486 14.1493 10.8125 14.1146C11.0764 14.0799 11.3472 14.0417 11.625 14L10.875 13.2083C10.7222 13.25 10.5764 13.2813 10.4375 13.3021C10.2986 13.3229 10.1528 13.3333 9.99998 13.3333C8.95831 13.3333 8.0729 12.9688 7.34373 12.2396C6.61456 11.5104 6.24998 10.625 6.24998 9.58334C6.24998 9.43056 6.2604 9.28473 6.28123 9.14584C6.30206 9.00695 6.33331 8.86111 6.37498 8.70834L4.62498 7Z" fill="white"/>
</svg>
